<?xml version="1.0" encoding="UTF-8"?>
<svg id="_구름바람" data-name="구름바람" xmlns="http://www.w3.org/2000/svg" viewBox="0 0 283.46 283.46">
  <defs>
    <style>
      .cls-1 {
        fill: #fff;
      }

      .cls-2 {
        fill: #0b93e2;
      }
    </style>
  </defs>
  <g id="_730_Cloud_Night_Weather" data-name="730, Cloud, Night, Weather">
    <g>
      <path class="cls-1" d="M69.38,53.98c4.51,0,8.06,3.51,8.06,7.98s-3.54,7.98-8.06,7.98-8.06-3.51-8.06-7.98,3.55-7.98,8.06-7.98Z"/>
      <path class="cls-2" d="M225.36,75.04c.64,.64,1.29,1.6,1.29,2.87,0,.96-.32,2.23-1.29,2.87-.64,.64-1.61,1.28-2.9,1.28-2.26,0-4.19-1.91-4.19-4.15,0-.96,.32-2.23,1.29-2.87,.64-.64,1.61-1.28,2.9-1.28s2.26,.64,2.9,1.28Z"/>
      <path class="cls-2" d="M185.08,106.95c.65,.64,1.29,1.6,1.29,2.87,0,.96-.32,2.23-1.29,2.87-.64,.64-1.61,1.28-2.9,1.28-2.26,0-4.19-1.91-4.19-4.15,0-.96,.32-2.23,1.29-2.87,.65-.64,1.61-1.28,2.9-1.28s2.26,.64,2.9,1.28Z"/>
      <path class="cls-2" d="M120.62,198.85c.64,.64,1.29,1.6,1.29,2.87,0,.96-.32,2.23-1.29,2.87-.64,.64-1.61,1.28-2.9,1.28-2.26,0-4.19-1.91-4.19-4.15,0-.96,.32-2.23,1.29-2.87,.64-.64,1.61-1.28,2.9-1.28,.97,0,2.26,.32,2.9,1.28Z"/>
      <path class="cls-2" d="M80.33,210.66c.65,.64,1.29,1.6,1.29,2.87,0,.96-.32,2.23-1.29,2.87-.64,.64-1.61,1.28-2.9,1.28-2.26,0-4.19-1.91-4.19-4.15,0-.96,.32-2.23,1.29-2.87,.64-.64,1.61-1.28,2.9-1.28,.97,0,2.26,.64,2.9,1.28Z"/>
      <path class="cls-2" d="M181.85,101.84c-2.26,0-3.87-1.6-3.87-3.83-.65-16.59-14.5-20.1-15.15-20.1-2.26-.64-3.54-2.55-2.9-4.79,.65-2.23,2.58-3.51,4.83-2.87,.65,0,5.48,1.28,10.31,5.11,4.83,3.83,10.31,10.53,10.96,22.34-.32,2.23-1.93,4.15-4.19,4.15h0Z"/>
      <path class="cls-2" d="M101.28,118.44c-.97,0-2.25-.32-2.9-1.28-7.41-8.3-18.05-7.02-18.69-7.02h-.65c-2.26,0-4.19-1.91-4.19-4.15s1.61-3.83,3.55-3.83c1.61-.32,15.47-1.28,25.46,9.89,1.61,1.6,1.29,4.15-.32,5.74-.32,.32-1.29,.64-2.26,.64Z"/>
      <path class="cls-2" d="M199.58,177.79h-17.4c-2.26,0-4.19-1.91-4.19-4.15s1.93-4.15,4.19-4.15h17.4c16.11-.64,29.01-13.72,29.01-30.32s-13.86-30-30.94-30h-.65c-1.29,0-2.26-.64-3.22-1.28-.97-.64-.97-2.23-.97-3.19,.32-1.91,.65-4.15,.65-6.06,0-20.1-17.08-36.7-37.71-36.7-14.5,0-27.39,7.98-33.84,20.42-.97,1.91-3.22,2.55-5.16,1.91-3.22-1.28-6.45-1.91-9.67-1.91-13.21,0-23.85,10.21-23.85,22.98v.32h0v.32c0,1.91-1.29,3.51-3.22,3.83-14.18,2.87-24.82,15-24.82,29.36v.96c.32,16.28,14.5,29.36,30.94,29.36h19.34c2.26,0,4.19,1.91,4.19,4.15s-1.93,4.15-4.19,4.15h-19.34c-10.31,0-19.98-3.83-27.07-10.85-7.41-7.02-11.6-16.28-11.92-26.49v-.96c0-16.91,11.6-31.59,28.04-36.38,1.29-15.96,15.15-28.72,31.91-28.72,3.22,0,6.45,.32,9.35,1.28,3.54-6.06,8.7-11.17,14.82-14.68,7.41-4.47,15.79-7.02,24.49-7.02,25.14,0,45.77,20.1,45.77,44.68v2.87c19.66,1.91,34.81,18.19,34.81,37.66,.32,21.06-15.79,37.65-36.74,38.61,0-.32,0,0,0,0Z"/>
      <path class="cls-2" d="M69.38,74.08c-6.77,0-12.25-5.42-12.25-12.13s5.48-12.13,12.25-12.13,12.25,5.42,12.25,12.13-5.48,12.13-12.25,12.13Zm0-15.96c-2.26,0-4.19,1.91-4.19,4.15s1.93,4.15,4.19,4.15,4.19-1.91,4.19-4.15c0-2.55-1.93-4.15-4.19-4.15Z"/>
      <path class="cls-2" d="M159.94,177.79h-38.03c-2.26,0-4.19-1.91-4.19-4.15s1.93-4.15,4.19-4.15h38.35c.97,0,1.93-.96,1.93-1.91,0-.64-.32-.96-.65-1.28-.32-.32-.97-.64-1.29-.64-2.26,0-4.19-1.91-4.19-4.15s1.93-4.15,4.19-4.15c2.58,0,5.16,.96,7.09,2.87,1.93,1.91,2.9,4.47,2.9,7.02,0,5.74-4.83,10.53-10.31,10.53Z"/>
      <path class="cls-2" d="M206.35,205.55h-76.38c-2.26,0-4.19-1.91-4.19-4.15s1.93-4.15,4.19-4.15h76.38c2.25,0,4.19,1.91,4.19,4.15s-1.93,4.15-4.19,4.15Z"/>
      <path class="cls-2" d="M206.35,205.55c-2.26,0-4.19-1.91-4.19-4.15s1.93-4.15,4.19-4.15,4.19-1.91,4.19-4.15-1.93-3.51-4.19-3.51-4.19,1.91-4.19,4.15-1.93,4.15-4.19,4.15-4.19-1.91-4.19-4.15c0-6.7,5.48-12.13,12.25-12.13s12.25,5.43,12.25,12.13c.32,6.38-5.16,11.81-11.92,11.81Z"/>
      <path class="cls-2" d="M178.31,233.64H81.63c-2.26,0-4.19-1.91-4.19-4.15s1.93-4.15,4.19-4.15h96.68c2.26,0,4.19,1.91,4.19,4.15-.32,2.23-2.26,4.15-4.19,4.15Z"/>
      <path class="cls-2" d="M178.31,233.64c-2.26,0-4.19-1.91-4.19-4.15s1.93-4.15,4.19-4.15,4.19-1.91,4.19-4.15-1.93-4.15-4.19-4.15-4.19,2.23-4.19,4.47-1.93,4.15-4.19,4.15-4.19-1.91-4.19-4.15c0-6.7,5.48-12.13,12.25-12.13s12.25,5.42,12.25,12.13-5.48,12.13-11.92,12.13Z"/>
      <path class="cls-2" d="M125.78,217.68h-36.1c-2.26,0-4.19-1.91-4.19-4.15s1.94-4.15,4.19-4.15h36.1c2.26,0,4.19,1.91,4.19,4.15s-1.93,4.15-4.19,4.15Z"/>
    </g>
  </g>
</svg>