<?xml version="1.0" encoding="UTF-8"?>
<svg id="_맑음" data-name="맑음" xmlns="http://www.w3.org/2000/svg" viewBox="0 0 283.46 283.46">
  <defs>
    <style>
      .cls-1 {
        fill: #c2e3f7;
      }

      .cls-2 {
        fill: #0b93e2;
      }
    </style>
  </defs>
  <g id="_728_Sun_Sunny_Weather" data-name="728, Sun, Sunny, Weather">
    <g>
      <path class="cls-1" d="M141.73,102.61c-21.92,0-39.52,17.43-39.52,39.13s17.6,38.8,39.52,38.8,39.18-17.43,39.18-39.13c.33-21.04-17.6-38.8-39.18-38.8Z"/>
      <path class="cls-1" d="M141.73,119.05c12.62,0,22.91,10.19,22.91,22.69s-10.29,22.69-22.91,22.69-22.91-10.19-22.91-22.69,10.29-22.69,22.91-22.69Z"/>
      <path class="cls-2" d="M141.73,184.8c-23.91,0-43.5-19.4-43.5-43.07s19.59-43.07,43.5-43.07,43.5,19.4,43.5,43.07-19.59,43.07-43.5,43.07Zm0-77.92c-19.59,0-35.2,15.78-35.2,34.85s15.94,34.85,35.2,34.85,35.2-15.78,35.2-34.85-15.6-34.85-35.2-34.85Z"/>
      <path class="cls-2" d="M141.73,168.36c-14.94,0-26.9-11.84-26.9-26.63s11.95-26.63,26.9-26.63,26.9,11.84,26.9,26.63-11.95,26.63-26.9,26.63Zm0-45.05c-10.29,0-18.6,8.22-18.6,18.41s8.3,18.41,18.6,18.41,18.59-8.22,18.59-18.41-8.3-18.41-18.59-18.41Z"/>
      <path class="cls-2" d="M141.73,91.43c-2.32,0-4.32-1.97-4.32-4.28V52.96c0-2.3,1.99-4.27,4.32-4.27s4.32,1.97,4.32,4.27v34.52c0,2.3-1.99,3.95-4.32,3.95Z"/>
      <path class="cls-2" d="M180.58,107.54c-1,0-1.99-.33-2.99-1.31-1.66-1.64-1.66-4.28,0-5.92l24.57-24.33c1.66-1.64,4.32-1.64,5.98,0s1.66,4.27,0,5.92l-24.57,24.33c-1,.66-1.99,1.31-2.99,1.31Z"/>
      <path class="cls-2" d="M231.39,146.01h-34.87c-2.32,0-4.32-1.97-4.32-4.27s1.99-4.27,4.32-4.27h34.87c2.32,0,4.32,1.97,4.32,4.27s-1.99,4.27-4.32,4.27Z"/>
      <path class="cls-2" d="M205.16,208.81c-1,0-1.99-.33-2.99-1.31l-24.57-24.33c-1.66-1.64-1.66-4.28,0-5.92s4.32-1.64,5.98,0l24.57,24.33c1.66,1.64,1.66,4.27,0,5.92-.66,.66-1.99,1.31-2.99,1.31Z"/>
      <path class="cls-2" d="M141.73,234.78c-2.32,0-4.32-1.97-4.32-4.27v-34.52c0-2.3,1.99-4.27,4.32-4.27s4.32,1.97,4.32,4.27v34.52c0,2.3-1.99,4.27-4.32,4.27Z"/>
      <path class="cls-2" d="M78.31,208.81c-1,0-1.99-.33-2.99-1.31-1.66-1.64-1.66-4.27,0-5.92l24.57-24.33c1.66-1.64,4.32-1.64,5.98,0,1.66,1.64,1.66,4.28,0,5.92l-24.57,24.33c-1,.66-1.99,1.31-2.99,1.31Z"/>
      <path class="cls-2" d="M86.94,146.01H52.08c-2.32,0-4.32-1.97-4.32-4.27s1.99-4.27,4.32-4.27h34.87c2.32,0,4.32,1.97,4.32,4.27s-1.99,4.27-4.32,4.27Z"/>
      <path class="cls-2" d="M102.88,107.54c-1,0-1.99-.33-2.99-1.31l-24.57-24.33c-1.66-1.64-1.66-4.27,0-5.92,1.66-1.64,4.32-1.64,5.98,0l24.57,24.33c1.66,1.64,1.66,4.28,0,5.92-1,.66-1.99,1.31-2.99,1.31Z"/>
      <path class="cls-2" d="M156.01,93.4h-1c-2.32-.66-3.65-2.96-2.99-4.93l4.32-16.77c.66-2.3,2.99-3.62,4.98-2.96,2.32,.66,3.65,2.96,2.99,4.93l-4.32,16.77c-.66,1.64-2.32,2.96-3.98,2.96Z"/>
      <path class="cls-2" d="M169.29,98.99c-.66,0-1.33-.33-1.99-.66-1.99-.99-2.66-3.62-1.66-5.59l8.63-15.12c1-1.97,3.65-2.63,5.64-1.64,1.99,.99,2.66,3.62,1.66,5.59l-8.63,15.12c-1,1.32-2.32,2.3-3.65,2.3Z"/>
      <path class="cls-2" d="M189.22,118.72c-1.33,0-2.99-.66-3.65-1.97-1-1.97-.33-4.6,1.66-5.59l15.27-8.55c1.99-.99,4.65-.33,5.64,1.64,1,1.97,.33,4.6-1.66,5.59l-15.27,8.55c-.66,0-1.33,.33-1.99,.33Z"/>
      <path class="cls-2" d="M194.86,131.87c-1.99,0-3.65-1.31-3.98-2.96-.66-2.3,.66-4.6,2.99-4.93l16.94-4.28c2.32-.66,4.65,.66,4.98,2.96,.66,2.3-.66,4.6-2.99,4.93l-16.93,4.27h-1Z"/>
      <path class="cls-2" d="M211.47,164.42h-1l-16.93-4.27c-2.32-.66-3.65-2.96-2.99-4.93,.66-2.3,2.99-3.62,4.98-2.96l16.93,4.27c2.32,.66,3.65,2.96,2.99,4.93-.33,1.64-1.99,2.96-3.98,2.96Z"/>
      <path class="cls-2" d="M204.49,181.85c-.66,0-1.33-.33-1.99-.66l-15.27-8.55c-1.99-.99-2.66-3.62-1.66-5.59,1-1.97,3.65-2.63,5.64-1.64l15.27,8.55c1.99,.99,2.66,3.62,1.66,5.59-1,1.31-2.32,2.3-3.65,2.3Z"/>
      <path class="cls-2" d="M177.93,207.82c-1.33,0-2.99-.66-3.65-1.97l-8.63-15.12c-1-1.97-.33-4.6,1.66-5.59,1.99-.99,4.65-.33,5.64,1.64l8.63,15.12c1,1.97,.33,4.6-1.66,5.59-.66,.33-1.33,.33-1.99,.33Z"/>
      <path class="cls-2" d="M160.33,215.05c-1.99,0-3.65-1.31-3.98-2.96l-4.32-16.77c-.66-2.3,.66-4.6,2.99-4.93,2.32-.66,4.65,.66,4.98,2.96l4.32,16.77c.66,2.3-.66,4.6-2.99,4.93h-1Z"/>
      <path class="cls-2" d="M123.13,215.05h-1c-2.32-.66-3.65-2.96-2.99-4.93l4.32-16.77c.66-2.3,2.99-3.62,4.98-2.96,2.32,.66,3.65,2.96,2.99,4.93l-4.32,16.77c-.66,1.64-2.32,2.96-3.98,2.96Z"/>
      <path class="cls-2" d="M105.54,207.82c-.66,0-1.33-.33-1.99-.66-1.99-.99-2.66-3.62-1.66-5.59l8.63-15.12c1-1.97,3.65-2.63,5.64-1.64,1.99,.99,2.66,3.62,1.66,5.59l-8.63,15.12c-.66,1.64-2.32,2.3-3.65,2.3Z"/>
      <path class="cls-2" d="M78.97,181.85c-1.33,0-2.99-.66-3.65-1.97-1-1.97-.33-4.6,1.66-5.59l15.28-8.55c1.99-.99,4.65-.33,5.64,1.64,1,1.97,.33,4.6-1.66,5.59l-14.94,8.22c-.66,.33-1.33,.66-2.32,.66Z"/>
      <path class="cls-2" d="M72,164.42c-1.99,0-3.65-1.31-3.98-2.96-.66-2.3,.66-4.6,2.99-4.93l16.93-4.27c2.32-.66,4.65,.66,4.98,2.96,.66,2.3-.66,4.6-2.99,4.93l-16.94,4.27h-1Z"/>
      <path class="cls-2" d="M88.6,131.87h-1l-16.93-4.27c-2.32-.66-3.65-2.96-2.99-4.93,.66-2.3,2.99-3.62,4.98-2.96l16.93,4.28c2.32,.66,3.65,2.96,2.99,4.93-.33,1.64-1.99,2.96-3.98,2.96Z"/>
      <path class="cls-2" d="M94.25,118.72c-.66,0-1.33-.33-1.99-.66l-15.28-8.55c-1.99-.99-2.66-3.62-1.66-5.59,1-1.97,3.65-2.63,5.65-1.64l15.27,8.55c1.99,.99,2.66,3.62,1.66,5.59-.66,1.64-2.32,2.3-3.65,2.3Z"/>
      <path class="cls-2" d="M114.17,98.99c-1.33,0-2.99-.66-3.65-1.97l-8.63-15.12c-1-1.97-.33-4.6,1.66-5.59,1.99-.99,4.65-.33,5.64,1.64l8.63,15.12c1,1.97,.33,4.6-1.66,5.59-.33,0-1.33,.33-1.99,.33Z"/>
      <path class="cls-2" d="M127.45,93.4c-1.99,0-3.65-1.31-3.98-2.96l-4.32-16.77c-.66-2.3,.66-4.6,2.99-4.93,2.32-.66,4.65,.66,4.98,2.96l4.32,16.77c.66,2.3-.66,4.6-2.99,4.93h-1Z"/>
    </g>
  </g>
</svg>