<svg width="283.46" height="283.46" viewBox="0 0 283.46 283.46" fill="none" xmlns="http://www.w3.org/2000/svg">
<path d="M146.793 216C109.239 216 79.5853 185.984 79.5853 148.035C79.5853 124.035 95.3835 106.052 109.239 88.069C115.196 80.0692 121.088 74.0528 125.038 68.1025C128.987 60.1027 136.886 56.1359 146.793 56.1359C154.692 56.1359 162.591 60.1027 168.548 68.1025C172.497 74.1189 178.454 80.0692 184.346 88.069C200.144 106.052 214 126.085 214 148.035C211.993 186.05 182.339 216 146.793 216ZM146.793 122.052C140.836 130.052 128.987 144.068 128.987 148.035C128.987 158.018 136.886 166.018 146.793 166.018C156.699 166.018 164.598 158.018 164.598 148.035C162.591 144.068 152.749 130.052 146.793 122.052Z" fill="#0B93E2"/>
<path d="M193.866 149.624C193.866 176.68 173.794 196.953 147.078 196.953C120.363 196.953 100.29 176.68 100.29 149.624C100.29 124.804 131.458 100.059 147.078 73.0031C162.699 100.059 193.866 127.115 193.866 149.624Z" fill="#C2E3F7"/>
</svg>
