<svg width="284" height="284" viewBox="0 0 284 284" fill="none" xmlns="http://www.w3.org/2000/svg">
<path d="M108.937 84.4307C118.65 85.6739 126.164 92.2377 129.608 100.666C126.164 103.785 123.653 107.536 121.465 111.592C118.022 110.032 114.264 109.411 110.507 109.411C99.5486 109.411 89.8359 115.964 85.7645 125.025C81.6931 119.715 79.8091 113.162 80.4371 106.292C82.3106 92.5537 95.1528 82.5659 108.937 84.4413V84.4307Z" fill="#C2E3F7"/>
<path d="M198.518 135.94H197.89C198.204 133.759 198.518 131.567 198.518 129.387C198.518 107.536 180.349 89.7407 157.804 89.7407C146.846 89.7407 136.819 94.113 129.618 100.982C126.175 104.101 123.663 107.852 121.476 111.908C118.032 110.349 114.275 109.727 110.517 109.727C99.5591 109.727 89.8463 116.28 85.7749 125.341C84.205 128.776 83.5875 132.21 83.5875 136.266V136.888C68.2438 140.007 56.3436 153.429 56.3436 169.359V170.297C56.9716 188.408 72.0012 203.073 90.4848 203.073H200.423C218.593 202.452 232.366 187.459 232.366 169.359C232.366 151.259 217.337 135.961 198.539 135.961L198.518 135.94Z" fill="#C2E3F7"/>
<path d="M186.304 137.51C186.932 138.131 187.56 139.069 187.56 140.323C187.56 141.26 187.246 142.504 186.304 143.136C185.676 143.757 184.734 144.379 183.488 144.379C181.301 144.379 179.417 142.504 179.417 140.323C179.417 139.385 179.731 138.142 180.673 137.51C181.301 136.888 182.243 136.256 183.488 136.256C184.734 136.256 185.676 136.877 186.304 137.51Z" fill="#0B93E2"/>
<path d="M183.175 132.505C180.987 132.505 179.417 130.946 179.417 128.754C178.789 112.519 165.319 109.084 164.691 109.084C162.504 108.463 161.248 106.587 161.876 104.406C162.504 102.226 164.387 100.972 166.575 101.593C167.203 101.593 171.902 102.837 176.602 106.587C181.301 110.338 186.628 116.891 187.246 128.438C186.932 130.619 185.372 132.189 183.175 132.495V132.505Z" fill="#0B93E2"/>
<path d="M104.865 148.435C103.924 148.435 102.668 148.119 102.05 147.181C94.8492 139.069 84.5085 140.312 83.8805 140.312H83.2525C81.0651 140.312 79.1811 138.437 79.1811 136.256C79.1811 134.075 80.7511 132.516 82.6246 132.516C84.1945 132.2 97.6542 131.272 107.367 142.198C108.937 143.757 108.623 146.254 107.053 147.814C106.739 148.13 105.797 148.435 104.865 148.435Z" fill="#0B93E2"/>
<path d="M85.7645 129.081C84.8225 129.081 83.8805 128.765 82.949 128.143L82.635 127.827C77.6217 121.58 75.7482 113.783 76.6797 105.976C77.6112 98.1693 81.6931 91.3 87.9519 86.6221C94.2108 81.9443 101.736 79.7529 109.565 80.6905C120.523 81.9337 129.608 89.4352 133.365 99.423C133.993 101.298 133.051 103.795 131.178 104.417C129.304 105.039 126.792 104.101 126.164 102.236C123.349 94.7452 116.766 89.4352 108.623 88.4975C102.982 87.8759 97.3507 89.4352 92.6513 92.8698C87.9519 96.3045 85.1365 101.298 84.5085 107.23C83.8805 112.846 85.4505 118.472 88.8939 123.149C90.1498 124.709 90.1498 126.89 88.5799 128.143C87.6379 128.459 86.696 129.081 85.7645 129.081Z" fill="#0B93E2"/>
<path d="M110.193 78.4991H109.565C107.377 78.183 105.807 76.3182 106.121 74.1268L107.691 61.9475C108.005 59.7666 109.879 58.1968 112.077 58.5129C114.275 58.8289 115.834 60.6938 115.52 62.8852L113.95 75.0645C113.95 76.9398 112.077 78.4991 110.193 78.4991Z" fill="#0B93E2"/>
<path d="M127.106 85.3684C126.164 85.3684 125.536 85.0523 124.605 84.4307C123.035 83.177 122.407 80.68 123.977 78.8152L131.492 69.1329C132.748 67.5736 135.249 66.952 137.133 68.5112C138.703 69.7545 139.331 72.2514 137.761 74.1268L130.246 83.8091C129.618 84.7468 128.373 85.3684 127.117 85.3684H127.106Z" fill="#0B93E2"/>
<path d="M61.9536 131.578C60.3836 131.578 58.8242 130.64 58.1962 129.081C57.2542 127.206 58.1962 124.709 60.3941 124.087L71.6663 119.409C73.5503 118.472 76.0517 119.409 76.6797 121.59C77.6217 123.466 76.6797 125.963 74.4922 126.584L63.22 131.262C62.906 131.578 62.278 131.578 61.964 131.578H61.9536Z" fill="#0B93E2"/>
<path d="M70.7244 108.779H70.0964L58.1962 107.219C56.0087 106.903 54.4388 105.039 54.7527 102.847C55.0667 100.666 56.9402 99.0964 59.1381 99.4125L71.3523 100.972C73.5398 101.288 75.1097 103.153 74.7957 105.344C74.1678 107.525 72.5978 108.779 70.7244 108.779Z" fill="#0B93E2"/>
<path d="M77.6217 91.9216C76.6797 91.9216 76.0517 91.6055 75.1202 90.9839L65.4075 83.493C63.8375 82.2498 63.2095 79.7529 64.7795 77.8775C66.0354 76.3182 68.5369 75.6966 70.4208 77.2559L80.1336 84.7468C81.7035 86.0005 82.321 88.4975 80.7616 90.3623C79.8196 91.6055 78.8881 91.9216 77.6321 91.9216H77.6217Z" fill="#0B93E2"/>
<path d="M92.0233 80.9961C90.4534 80.9961 88.8939 80.0584 88.2659 78.4991L83.5665 67.2575C82.6246 65.3821 83.5665 62.8852 85.754 62.2636C87.6275 61.3259 90.1394 62.2636 90.7674 64.4445L95.4667 75.6861C96.4087 77.5614 95.4667 80.0584 93.2688 80.68C93.2688 80.68 92.6408 80.9961 92.0128 80.9961H92.0233Z" fill="#0B93E2"/>
<path d="M200.402 206.497H90.4638C80.4371 206.497 71.0488 202.757 64.1515 195.888C56.9507 189.019 52.8793 179.969 52.5653 169.981V169.043C52.5653 152.502 63.8375 138.142 79.8091 133.453C80.1231 130.019 81.0651 126.584 82.3106 123.466C87.3239 112.54 98.2822 105.355 110.496 105.355C113.626 105.355 116.755 105.671 119.581 106.598C121.455 103.479 123.967 100.35 126.782 97.5477C135.239 89.7407 146.197 85.3684 157.794 85.3684C182.222 85.3684 202.265 105.039 202.265 129.071V131.884C221.366 133.759 236.092 149.678 236.092 168.727C236.406 189.335 220.749 205.876 200.392 206.497H200.402ZM87.3239 136.256C87.3239 138.437 86.068 140.007 84.1945 140.312C70.4104 143.125 60.0801 154.988 60.0801 169.032V169.97C60.3941 185.89 74.1678 198.691 90.1499 198.691H200.088C215.746 198.069 228.274 185.268 228.274 169.032C228.274 152.797 214.804 139.691 198.204 139.691H197.576C196.32 139.691 195.389 139.069 194.447 138.447C193.819 137.51 193.505 136.266 193.505 135.329C193.819 133.453 194.133 131.272 194.133 129.397C194.133 109.727 177.533 93.4914 157.49 93.4914C147.788 93.4914 138.693 97.2316 131.806 103.795C128.676 106.608 126.164 110.043 124.291 113.783C123.349 115.659 121.162 116.28 119.278 115.659C116.462 114.405 113.008 113.783 109.879 113.783C100.794 113.783 92.3373 119.093 88.5799 127.206C87.3239 130.019 86.696 133.137 86.696 136.256C87.1146 136.045 87.3239 136.045 87.3239 136.256Z" fill="#0B93E2"/>
</svg>
