<?xml version="1.0" encoding="UTF-8"?>
<svg id="_강한풍량" data-name="강한풍량" xmlns="http://www.w3.org/2000/svg" viewBox="0 0 283.46 283.46">
  <defs>
    <style>
      .cls-1 {
        fill: #fff;
      }

      .cls-2 {
        fill: #9bc9ff;
      }

      .cls-3 {
        fill: #1e81ce;
      }
    </style>
  </defs>
  <g id="F728_Airflow_direction_wind" data-name="F728, Airflow, direction, wind">
    <polygon class="cls-2" points="114.38 207.66 114.38 230.87 51.87 230.87 51.87 207.66 71.25 207.66 94.69 207.66 114.38 207.66"/>
    <path class="cls-2" d="M94.69,107.07v100.59h-23.44V64.36c0-6.5,5.31-11.76,11.88-11.76,3.13,0,6.25,1.24,8.44,3.4,2.19,2.17,3.44,4.95,3.44,8.36v42.71h-.31Z"/>
    <path class="cls-1" d="M174.71,192.18c5.35,0,9.69,4.29,9.69,9.6s-4.34,9.59-9.69,9.59-9.69-4.29-9.69-9.59,4.34-9.6,9.69-9.6Z"/>
    <path class="cls-1" d="M205.97,145.76c5.35,0,9.69,4.29,9.69,9.6s-4.34,9.59-9.69,9.59-9.69-4.29-9.69-9.59,4.34-9.6,9.69-9.6Z"/>
    <path class="cls-1" d="M135.64,157.21c5.31,0,9.69,4.33,9.69,9.59s-4.38,9.6-9.69,9.6-9.69-4.33-9.69-9.6,4.38-9.59,9.69-9.59Z"/>
    <path class="cls-1" d="M167.52,81.69l-11.56,46.12c-1.25,.31-2.19,.93-2.5,1.55-4.37,6.5-19.69,2.17-19.69,2.17l-14.38,1.55,13.13-52.62h1.25s15,2.78,19.69,.93c4.07-1.24,10-.62,14.07,.31Z"/>
    <path class="cls-1" d="M231.6,103.04l-19.07,19.5h-.63s-16.57-1.55-19.69,2.17c-.31,.31-.31,.62-.63,.62l10-39.31c5,0,10.31-.93,10.31-.93h.63l19.07,17.95Z"/>
    <path class="cls-2" d="M201.59,86.33l-10,39.31c-4.38,2.79-18.75,1.55-18.75,1.55,0,0-11.56-1.24-16.88,.62l11.56-46.12c3.13,.62,5.31,1.24,5.31,1.24,0,0,15.63-4.64,19.38,.93,1.25,2.17,5.31,2.48,9.38,2.48Z"/>
    <polygon class="cls-2" points="132.51 80.76 119.38 133.38 114.38 133.99 113.76 133.99 94.69 107.07 113.76 79.83 114.38 79.83 132.51 80.76"/>
    <path class="cls-3" d="M94.69,211.37c-2.19,0-4.07-1.86-4.07-4.02V64.36c0-2.17-.94-4.02-2.19-5.57-1.57-1.24-3.44-2.17-5.31-2.17-4.38,0-7.82,3.4-7.82,7.74V207.66c0,2.17-1.87,4.02-4.06,4.02s-4.07-1.86-4.07-4.02V64.36c0-8.67,6.88-15.48,15.63-15.48,4.06,0,8.13,1.55,10.94,4.64,2.81,2.79,4.69,6.81,4.69,10.83V207.66c.31,1.86-1.56,3.71-3.75,3.71Z"/>
    <path class="cls-3" d="M114.38,234.58H51.87c-2.19,0-4.07-1.86-4.07-4.02v-23.21c0-2.17,1.88-4.02,4.07-4.02h62.51c2.19,0,4.07,1.86,4.07,4.02v23.21c-.31,2.17-2.19,4.02-4.07,4.02Zm-58.76-7.74h54.7v-15.48H55.62v15.48Z"/>
    <path class="cls-3" d="M119.38,137.09c-1.88,0-3.75-1.55-3.75-3.4-.31-2.17,1.25-4.03,3.44-4.33l14.38-1.55h1.56c5.31,1.55,13.44,2.17,15.31-.62,.94-1.55,2.5-2.48,4.69-3.1,2.19-.62,4.38,.31,5,2.48,.63,2.17-.31,4.33-2.5,4.95-.31,0-.63,.31-.63,.31-5.31,7.74-19.07,4.95-23.13,4.02l-14.07,1.24h-.31Z"/>
    <path class="cls-3" d="M148.45,86.33c-5.63,0-12.19-1.24-15-1.55h-.94c-2.19,0-3.75-1.86-3.75-4.02s1.88-3.71,4.07-3.71h1.87c6.56,1.24,15.32,2.17,17.19,1.24,4.06-1.86,9.69-1.86,16.57-.62,2.19,.31,3.44,2.48,3.13,4.64-.31,2.17-2.5,3.41-4.69,3.1-5-.93-9.38-.93-11.88,0-1.87,.93-4.06,.93-6.56,.93Z"/>
    <path class="cls-3" d="M113.76,138.02c-1.25,0-2.5-.62-3.13-1.55l-19.07-27.24c-.94-1.24-.94-3.1,0-4.33l19.07-27.24c.63-1.24,2.19-1.86,3.44-1.55h.63l18.44,.93c1.25,0,2.19,.62,2.81,1.55,.63,.93,.94,2.17,.63,3.1l-13.13,52.62c-.63,1.55-2.19,2.79-3.75,2.79l-5.62,.62-.31,.31Zm-14.38-30.95l16.25,22.9h.63l11.25-45.5-11.88-.62-16.25,23.21Z"/>
    <path class="cls-3" d="M155.96,131.52c-.94,0-1.88-.31-2.5-.93-.94-.93-1.56-2.48-1.25-3.71l11.56-46.12c.63-1.86,2.5-3.4,4.69-2.78,1.88,.31,3.44,.93,4.69,1.24,4.69-1.24,17.5-4.02,22.51,2.79,.31,.31,1.87,.62,5.94,.62,2.19,0,4.06,1.55,4.06,3.71s-1.56,4.03-3.75,4.03c-6.56,0-10.63-.93-12.5-3.71-1.25-1.86-9.38-1.24-15.31,.31-.94,.31-1.56,.31-2.5,0,0,0-.31-.31-1.25-.31l-9.38,36.52c5.31-.31,10.94,.31,12.19,.31,6.25,.62,14.38,.31,16.25-.93,1.88-1.24,4.38-.62,5.31,1.24,1.25,1.86,.63,4.33-1.25,5.26-5,3.4-17.51,2.48-21.26,2.16h0c-4.06-.31-11.88-.62-15.31,.31h-.94Z"/>
    <path class="cls-3" d="M191.59,129.35c-.94,0-1.56-.31-2.19-.62-1.25-.93-1.87-2.48-1.56-4.02l10-39.31c.31-1.55,1.87-2.78,3.75-2.78,4.69,0,9.69-.93,9.69-.93h1.56c.94,0,1.87,.31,2.5,.93l19.07,17.95c.63,.62,1.25,1.55,1.25,2.78,0,.93-.31,2.17-1.25,2.79l-19.07,19.5c-.63,.62-1.56,.93-2.19,1.24h-1.56s-3.13-.31-6.56-.31c-7.19,0-9.38,.93-9.38,1.24-.31,.62-.94,.93-1.56,1.24-.94,0-1.88,.31-2.5,.31Zm13.13-39.31l-7.19,28.78c1.88-.31,4.38-.62,7.5-.62,2.5,0,4.69,0,5.94,.31l15-15.48-14.69-13.93c-1.57,.31-4.07,.62-6.56,.93Z"/>
    <path class="cls-3" d="M135.64,180.42c-7.5,0-13.76-6.19-13.76-13.62s6.25-13.62,13.76-13.62,13.75,6.19,13.75,13.62-6.25,13.62-13.75,13.62Zm0-19.19c-3.13,0-5.94,2.48-5.94,5.88s2.5,5.88,5.94,5.88c3.13,0,5.94-2.48,5.94-5.88s-2.5-5.88-5.94-5.88Z"/>
    <path class="cls-3" d="M205.97,168.97c-7.5,0-13.75-6.19-13.75-13.62s6.25-13.62,13.75-13.62,13.76,6.19,13.76,13.62-6.25,13.62-13.76,13.62Zm0-19.5c-3.12,0-5.94,2.48-5.94,5.88s2.5,5.88,5.94,5.88c3.13,0,5.94-2.48,5.94-5.88s-2.5-5.88-5.94-5.88Z"/>
    <path class="cls-3" d="M174.71,215.39c-7.5,0-13.76-6.19-13.76-13.62s6.25-13.62,13.76-13.62,13.75,6.19,13.75,13.62-6.25,13.62-13.75,13.62Zm0-19.5c-3.13,0-5.94,2.48-5.94,5.88,0,3.1,2.5,5.88,5.94,5.88,3.13,0,5.94-2.48,5.94-5.88s-2.5-5.88-5.94-5.88Z"/>
  </g>
</svg>