<?xml version="1.0" encoding="UTF-8"?>
<svg id="_우박" data-name="우박" xmlns="http://www.w3.org/2000/svg" viewBox="0 0 283.46 283.46">
  <defs>
    <style>
      .cls-1 {
        fill: #fff;
      }

      .cls-2 {
        fill: #9bc9ff;
      }

      .cls-3 {
        fill: #1e81ce;
      }
    </style>
  </defs>
  <g id="F736_Hail_ice_weather" data-name="F736, Hail, ice, weather">
    <path class="cls-2" d="M219.02,178.83c8.13,0,14.72,6.52,14.72,14.57s-6.59,14.58-14.72,14.58-14.72-6.52-14.72-14.58,6.59-14.57,14.72-14.57Z"/>
    <path class="cls-1" d="M141.73,162.6c16.06-13.25,37.8,16.56,37.8,37.43s-16.73,37.44-37.8,37.44-37.81-16.56-37.81-37.44,20.41-23.19,37.81-37.43Z"/>
    <path class="cls-2" d="M148.09,112.58c8.13,0,14.72,6.52,14.72,14.57s-6.59,14.58-14.72,14.58-14.72-6.52-14.72-14.58,6.59-14.57,14.72-14.57Z"/>
    <path class="cls-2" d="M76.83,150.01c8.13,0,14.72,6.52,14.72,14.58s-6.59,14.57-14.72,14.57-14.72-6.52-14.72-14.57,6.59-14.58,14.72-14.58Z"/>
    <path class="cls-1" d="M83.18,46.66c20.74,0,37.8,16.56,37.8,37.43s-21.08,27.83-37.8,37.1c-18.07,9.94-37.8-16.56-37.8-37.43s17.06-37.1,37.8-37.1Z"/>
    <path class="cls-1" d="M200.28,46.66c20.74,0,37.8,16.56,37.8,37.43s-20.07,48.37-37.8,37.44c-16.39-10.27-37.8-16.56-37.8-37.44s17.06-37.43,37.8-37.43Z"/>
    <path class="cls-3" d="M75.16,127.16c-18.07,0-33.79-23.85-33.79-43.39,0-22.86,18.73-41.41,41.82-41.41s41.82,18.55,41.82,41.41c0,20.21-17.4,29.48-33.12,37.43-2.34,1.33-4.68,2.32-6.69,3.65-3.35,1.66-6.69,2.32-10.04,2.32Zm8.03-76.52c-18.4,0-33.46,14.91-33.46,33.13,0,7.62,3.01,16.56,8.36,23.85,5.02,7.29,11.38,11.26,17.06,11.26,2.01,0,4.01-.66,6.02-1.66,2.34-1.32,4.68-2.32,7.02-3.64,14.72-7.62,28.44-14.58,28.44-29.81,0-18.22-15.05-33.13-33.46-33.13Z"/>
    <path class="cls-3" d="M208.64,127.82c-3.68,0-7.36-.99-10.71-3.31-3.35-1.99-6.69-3.98-10.37-5.96-13.72-7.62-29.11-15.9-29.11-34.78,0-22.86,18.74-41.41,41.82-41.41s41.82,18.55,41.82,41.41c0,19.21-15.72,44.06-33.45,44.06Zm-8.36-77.18c-18.4,0-33.46,14.91-33.46,33.13,0,13.91,11.71,20.21,25.09,27.49,3.68,1.99,7.36,3.98,10.71,6.3,2.01,1.32,4.01,1.99,6.02,1.99,11.37,0,25.09-19.21,25.09-35.78,0-18.22-15.05-33.13-33.45-33.13Z"/>
    <path class="cls-3" d="M141.73,241.11c-23.09,0-41.82-18.55-41.82-41.41,0-16.56,11.37-22.86,23.08-29.81,5.35-2.98,10.71-6.3,16.06-10.6,3.35-2.65,7.03-4.31,11.38-4.31,8.03,0,16.39,5.63,23.42,15.57,6.36,8.94,10.04,19.88,10.04,29.15-.33,22.86-19.07,41.41-42.15,41.41Zm8.7-77.85c-2.01,0-4.01,.66-6.02,2.32-5.69,4.64-11.71,8.28-17.06,11.26-12.38,7.29-19.07,11.59-19.07,22.86,0,18.22,15.06,33.13,33.46,33.13s33.45-14.91,33.45-33.13c0-15.9-14.05-36.44-24.76-36.44Z"/>
    <path class="cls-3" d="M76.83,183.14c-10.37,0-18.74-8.28-18.74-18.55s8.36-18.55,18.74-18.55,18.74,8.28,18.74,18.55-8.36,18.55-18.74,18.55Zm0-28.82c-5.69,0-10.37,4.64-10.37,10.27s4.68,10.27,10.37,10.27,10.37-4.64,10.37-10.27-4.68-10.27-10.37-10.27Z"/>
    <path class="cls-3" d="M148.09,146.04c-10.37,0-18.74-8.28-18.74-18.55s8.36-18.55,18.74-18.55,18.73,8.28,18.73,18.55-8.36,18.55-18.73,18.55Zm0-29.15c-5.69,0-10.37,4.64-10.37,10.27s4.68,10.27,10.37,10.27,10.37-4.64,10.37-10.27-4.68-10.27-10.37-10.27Z"/>
    <path class="cls-3" d="M219.02,212.29c-10.37,0-18.74-8.28-18.74-18.55s8.36-18.55,18.74-18.55,18.73,8.28,18.73,18.55-8.36,18.55-18.73,18.55Zm0-29.15c-5.69,0-10.37,4.64-10.37,10.27s4.68,10.27,10.37,10.27,10.37-4.64,10.37-10.27-4.68-10.27-10.37-10.27Z"/>
  </g>
</svg>