<?xml version="1.0" encoding="UTF-8"?>
<svg id="_먹구름" data-name="먹구름" xmlns="http://www.w3.org/2000/svg" viewBox="0 0 283.46 283.46">
  <defs>
    <style>
      .cls-1 {
        fill: #9bc9ff;
      }

      .cls-2 {
        fill: #1e81ce;
      }
    </style>
  </defs>
  <g id="F726_Wind_cloud_crescent" data-name="F726, Wind, cloud, crescent">
    <path class="cls-1" d="M183.86,103.49c10.67,0,20.22,4.17,27.25,11.12,7.02,6.95,11.23,16.41,11.23,26.98,0,21.14-17.41,38.38-38.76,38.38H99.32c-10.67,0-20.22-4.17-27.24-11.12-7.02-6.95-11.24-16.41-11.24-26.98s4.21-20.02,11.24-26.98c7.02-6.95,16.57-11.12,27.24-11.12,0-23.08,18.82-41.72,42.13-41.72s42.41,18.36,42.41,41.44Z"/>
    <path class="cls-2" d="M183.86,183.31H99.6c-11.24,0-21.91-4.45-29.77-12.24-7.87-7.79-12.36-18.36-12.36-29.48s4.49-21.69,12.36-29.48c7.02-6.95,16.29-11.4,26.4-11.96,1.68-23.36,21.63-41.72,45.5-41.72s43.82,18.36,45.5,41.72c10.11,.83,19.38,5.01,26.4,11.96,7.87,7.79,12.36,18.36,12.36,29.48,0,23.08-18.82,41.72-42.13,41.72Zm-42.13-118.19c-21.34,0-38.76,17.24-38.76,38.38,0,1.95-1.69,3.62-3.65,3.62-9.27,0-18.26,3.61-24.71,10.29-6.46,6.12-10.11,15.02-10.11,24.2s3.65,18.08,10.39,24.47c6.74,6.68,15.45,10.29,24.72,10.29h84.26c19.38,0,35.11-15.57,35.11-34.76,0-9.18-3.65-18.08-10.39-24.47-6.46-6.68-15.45-10.29-24.72-10.29-1.97,0-3.65-1.67-3.65-3.61,.28-20.86-17.13-38.1-38.48-38.1Z"/>
    <path class="cls-2" d="M117.3,103.49c-1.97,0-3.65-1.67-3.65-3.61,0-4.45,2.81-10.29,7.02-15.3,5.06-5.84,11.24-9.18,17.41-9.18,1.97,0,3.65,1.67,3.65,3.61s-1.68,3.61-3.65,3.61c-9.83,0-17.69,12.51-17.69,17.52,.28,1.67-1.4,3.34-3.09,3.34Z"/>
    <path class="cls-2" d="M152.12,141.59c-1.69,0-3.09-1.11-3.37-2.78-.56-1.95,.84-3.61,2.53-4.17,11.52-2.78,19.94-8.9,25-18.08,3.65-6.95,3.93-13.35,3.93-13.35,0-1.95,1.68-3.34,3.65-3.34s3.37,1.67,3.37,3.61c0,.28-.28,7.79-4.77,16.13-3.93,7.79-12.36,17.8-29.77,21.97h-.56Z"/>
    <path class="cls-2" d="M68.15,211.12c-5.9,0-10.67-4.73-10.67-10.57s4.77-10.57,10.67-10.57c1.97,0,3.65,1.67,3.65,3.62s-1.69,3.61-3.65,3.61-3.65,1.67-3.65,3.61,1.68,3.62,3.65,3.62,3.65,1.67,3.65,3.61c-.28,1.39-1.97,3.06-3.65,3.06Z"/>
    <path class="cls-2" d="M120.67,211.12h-52.52c-1.97,0-3.65-1.67-3.65-3.61s1.68-3.62,3.65-3.62h52.52c1.97,0,3.65,1.67,3.65,3.62s-1.69,3.61-3.65,3.61Z"/>
    <path class="cls-2" d="M82.19,225.02c-5.9,0-10.67-4.73-10.67-10.57s4.77-10.57,10.67-10.57c1.97,0,3.65,1.67,3.65,3.62s-1.68,3.61-3.65,3.61-3.65,1.67-3.65,3.61,1.68,3.62,3.65,3.62,3.65,1.67,3.65,3.61c-.28,1.39-1.96,3.06-3.65,3.06Z"/>
    <path class="cls-2" d="M134.71,225.02h-52.52c-1.97,0-3.65-1.67-3.65-3.61s1.68-3.62,3.65-3.62h52.52c1.97,0,3.65,1.67,3.65,3.62s-1.68,3.61-3.65,3.61Z"/>
    <path class="cls-2" d="M216.44,214.73c-1.97,0-3.65-1.67-3.65-3.61s1.69-3.61,3.65-3.61c.84,0,1.68-.84,1.68-1.67s-.84-1.67-1.68-1.67c-1.97,0-3.65-1.67-3.65-3.61s1.69-3.62,3.65-3.62c4.77,0,8.7,3.89,8.7,8.62,0,5.01-3.93,9.18-8.7,9.18Z"/>
    <path class="cls-2" d="M216.44,214.73h-39.6c-1.97,0-3.65-1.67-3.65-3.61s1.69-3.61,3.65-3.61h39.6c1.96,0,3.65,1.67,3.65,3.61-.28,1.95-1.69,3.61-3.65,3.61Z"/>
    <path class="cls-2" d="M205.77,225.02c-1.97,0-3.65-1.67-3.65-3.61s1.69-3.62,3.65-3.62c.84,0,1.68-.83,1.68-1.67s-.84-1.67-1.68-1.67c-1.97,0-3.65-1.67-3.65-3.62s1.69-3.61,3.65-3.61c4.77,0,8.71,3.89,8.71,8.62,0,5.28-3.93,9.18-8.71,9.18Z"/>
    <path class="cls-2" d="M205.77,225.02h-39.32c-1.97,0-3.65-1.67-3.65-3.61s1.68-3.62,3.65-3.62h39.6c1.97,0,3.65,1.67,3.65,3.62-.28,1.95-1.96,3.61-3.93,3.61Z"/>
  </g>
</svg>