<svg width="283.46" height="283.46" viewBox="0 0 283.46 283.46" fill="none" xmlns="http://www.w3.org/2000/svg">
<path d="M195.677 109.467H195.064C195.371 107.358 195.677 105.239 195.677 103.13C195.677 82.003 177.922 64.7975 155.891 64.7975C145.183 64.7975 135.384 69.025 128.347 75.6668C124.983 78.6821 122.528 82.3086 120.39 86.2306C117.025 84.7229 113.353 84.1219 109.682 84.1219C98.9731 84.1219 89.4816 90.4581 85.503 99.2187C83.9688 102.54 83.3654 105.861 83.3654 109.782V110.383C68.3713 113.399 56.7423 126.377 56.7423 141.779V142.686C57.3559 160.197 72.0431 174.377 90.1055 174.377H197.539C215.295 173.776 228.754 159.28 228.754 141.779C228.754 124.278 214.067 109.487 195.698 109.487L195.677 109.467Z" fill="#C2E3F7"/>
<path d="M183.742 110.984C184.355 111.585 184.969 112.492 184.969 113.704C184.969 114.611 184.662 115.813 183.742 116.424C183.128 117.025 182.207 117.626 180.99 117.626C178.853 117.626 177.012 115.813 177.012 113.704C177.012 112.798 177.318 111.596 178.239 110.984C178.853 110.383 179.773 109.772 180.99 109.772C182.207 109.772 183.128 110.373 183.742 110.984Z" fill="#0B93E2"/>
<path d="M151.299 200.323C151.299 200.924 150.992 201.535 150.685 202.136C150.071 203.338 148.548 203.949 147.32 203.949C146.706 203.949 146.093 203.644 145.489 203.348C143.648 202.146 143.035 200.027 144.262 198.214C144.876 197.012 146.103 196.401 147.627 196.401C148.241 196.401 148.854 196.706 149.468 197.002C150.389 197.908 151.309 199.11 151.309 200.323H151.299Z" fill="#0B93E2"/>
<path d="M95.8024 213.382C95.8024 213.983 95.4956 214.594 95.1888 215.196C94.5751 216.398 93.0409 217.009 91.8238 217.009C91.2101 217.009 90.5965 216.703 89.9828 216.408C88.1418 215.206 87.5383 213.087 88.7554 211.274C89.3691 210.072 90.5965 209.46 92.1204 209.46C92.7341 209.46 93.3478 209.766 93.9512 210.061C95.1785 210.968 95.7922 212.17 95.7922 213.382H95.8024Z" fill="#0B93E2"/>
<path d="M83.9586 200.323C83.9586 200.924 83.6517 201.535 83.3449 202.136C82.7312 203.338 81.2073 203.949 79.9799 203.949C79.3663 203.949 78.7526 203.644 78.1492 203.348C76.3081 202.146 75.7047 200.027 76.9218 198.214C77.5355 197.012 78.7628 196.401 80.2868 196.401C80.9005 196.401 81.5141 196.706 82.1176 197.002C83.0381 197.908 83.9586 199.11 83.9586 200.323Z" fill="#0B93E2"/>
<path d="M180.683 106.146C178.546 106.146 177.012 104.638 177.012 102.519C176.398 86.8214 163.235 83.5005 162.621 83.5005C160.483 82.8995 159.256 81.0862 159.87 78.9776C160.483 76.8689 162.324 75.6567 164.462 76.2577C165.076 76.2577 169.668 77.4597 174.26 81.0862C178.853 84.7127 184.059 91.0489 184.662 102.214C184.355 104.322 182.831 105.84 180.683 106.136V106.146Z" fill="#0B93E2"/>
<path d="M104.159 121.548C103.238 121.548 102.011 121.243 101.407 120.336C94.3705 112.492 84.2654 113.694 83.6518 113.694H83.0381C80.9005 113.694 79.0594 111.881 79.0594 109.772C79.0594 107.664 80.5936 106.156 82.4244 106.156C83.9586 105.85 97.1116 104.954 106.603 115.518C108.137 117.025 107.83 119.44 106.296 120.947C105.989 121.253 105.069 121.548 104.159 121.548Z" fill="#0B93E2"/>
<path d="M197.518 177.688H90.0851C80.2868 177.688 71.1124 174.071 64.3722 167.43C57.3355 160.788 53.3568 152.037 53.05 142.38V141.474C53.05 125.48 64.0654 111.596 79.6731 107.063C79.9799 103.742 80.9005 100.421 82.1176 97.4055C87.0167 86.8418 97.7253 79.8944 109.661 79.8944C112.719 79.8944 115.777 80.2 118.539 81.0964C120.37 78.0811 122.824 75.0556 125.576 72.3459C133.84 64.7975 144.548 60.57 155.881 60.57C179.753 60.57 199.339 79.5888 199.339 102.825V105.545C218.005 107.358 232.395 122.75 232.395 141.168C232.702 161.093 217.401 177.087 197.508 177.688H197.518ZM87.0167 109.772C87.0167 111.881 85.7894 113.399 83.9586 113.694C70.4885 116.414 60.3936 127.884 60.3936 141.463V142.37C60.7004 157.762 74.1603 170.139 89.7782 170.139H197.212C212.513 169.538 224.755 157.161 224.755 141.463C224.755 125.766 211.592 113.093 195.371 113.093H194.757C193.53 113.093 192.619 112.492 191.699 111.891C191.085 110.984 190.778 109.782 190.778 108.876C191.085 107.063 191.392 104.954 191.392 103.141C191.392 84.1219 175.171 68.424 155.584 68.424C146.103 68.424 137.215 72.0403 130.485 78.3867C127.427 81.1066 124.972 84.4275 123.141 88.0438C122.221 89.8571 120.083 90.4581 118.242 89.8571C115.491 88.6448 112.116 88.0438 109.058 88.0438C100.18 88.0438 91.9159 93.178 88.2441 101.022C87.0167 103.742 86.403 106.757 86.403 109.772C86.8122 109.569 87.0167 109.569 87.0167 109.772Z" fill="#0B93E2"/>
<path d="M154.664 194.292C153.743 194.292 153.13 193.987 152.219 193.386C150.685 192.183 150.082 189.759 151.606 187.956L155.891 182.526C157.118 181.019 159.563 180.418 161.404 181.925C162.938 183.127 163.542 185.542 162.018 187.355L157.732 192.784C156.812 193.997 155.901 194.292 154.674 194.292H154.664Z" fill="#0B93E2"/>
<path d="M120.994 194.292C120.073 194.292 119.459 193.987 118.549 193.386C117.015 192.183 116.412 189.759 117.936 187.956L122.221 182.526C123.448 181.019 125.893 180.418 127.724 181.925C129.258 183.127 129.871 185.542 128.337 187.355L124.052 192.784C123.131 193.997 122.221 194.292 120.994 194.292Z" fill="#0B93E2"/>
<path d="M87.3235 194.292C86.403 194.292 85.7894 193.987 84.8791 193.386C83.3449 192.183 82.7312 189.759 84.2654 187.956L88.5509 182.526C89.7782 181.019 92.2227 180.418 94.0637 181.925C95.5979 183.127 96.2013 185.542 94.6774 187.355L90.3919 192.784C89.7782 193.997 88.5509 194.292 87.3338 194.292H87.3235Z" fill="#0B93E2"/>
<path d="M195.872 197.399C195.872 201.097 193.059 203.868 189.316 203.868C185.572 203.868 182.76 201.097 182.76 197.399C182.76 194.007 187.137 190.319 189.316 186.927C191.505 190.625 195.872 194.017 195.872 197.399Z" fill="#C2E3F7"/>
<path d="M172.45 212.802C172.45 216.499 169.637 219.27 165.894 219.27C162.151 219.27 159.338 216.499 159.338 212.802C159.338 209.409 163.715 205.722 165.894 202.33C168.083 206.027 172.45 209.42 172.45 212.802Z" fill="white"/>
<path d="M189.316 207.881C183.384 207.881 178.699 203.257 178.699 197.409C178.699 193.712 181.195 190.941 183.384 188.17C184.325 186.937 185.255 186.01 185.879 185.093C186.503 183.861 187.751 183.25 189.316 183.25C190.564 183.25 191.811 183.861 192.752 185.093C193.376 186.02 194.317 187.253 195.248 188.17C197.743 190.941 199.932 194.027 199.932 197.409C199.932 203.267 195.248 207.881 189.316 207.881ZM189.316 193.406C188.375 194.639 186.503 196.798 186.503 197.409C186.503 198.948 187.751 200.18 189.316 200.18C190.881 200.18 192.128 198.948 192.128 197.409C192.128 196.798 190.564 194.639 189.316 193.406Z" fill="#0B93E2"/>
<path d="M165.894 223.284C159.962 223.284 155.277 218.659 155.277 212.812C155.277 209.114 157.773 206.343 159.962 203.572C160.903 202.34 161.833 201.413 162.457 200.496C163.081 199.263 164.329 198.652 165.894 198.652C167.142 198.652 168.39 199.263 169.331 200.496C169.954 201.423 170.895 202.656 171.826 203.572C174.322 206.343 176.51 209.43 176.51 212.812C176.51 218.669 171.826 223.284 165.894 223.284ZM165.894 208.808C164.953 210.041 163.081 212.201 163.081 212.812C163.081 214.35 164.329 215.583 165.894 215.583C167.459 215.583 168.707 214.35 168.707 212.812C168.707 212.201 167.142 210.041 165.894 208.808Z" fill="#0B93E2"/>
<path d="M135.19 213.688C135.19 217.386 132.377 220.156 128.634 220.156C124.89 220.156 122.078 217.386 122.078 213.688C122.078 210.296 126.455 206.914 128.634 203.216C130.823 206.914 135.19 210.611 135.19 213.688Z" fill="white"/>
<path d="M111.758 198.285C111.758 201.983 108.945 204.754 105.202 204.754C101.458 204.754 98.6458 201.983 98.6458 198.285C98.6458 194.893 103.013 191.511 105.202 187.813C107.391 191.511 111.758 195.209 111.758 198.285Z" fill="#C2E3F7"/>
<path d="M105.202 208.768C99.2697 208.768 94.5853 204.143 94.5853 198.296C94.5853 194.598 97.0809 191.827 99.2697 189.056C100.211 187.824 101.141 186.897 101.765 185.98C102.389 184.747 103.637 184.136 105.202 184.136C106.45 184.136 107.697 184.747 108.638 185.98C109.262 186.907 110.203 187.824 111.134 189.056C113.63 191.827 115.818 194.914 115.818 198.296C115.501 204.153 110.817 208.768 105.202 208.768ZM105.202 194.292C104.261 195.525 102.389 197.684 102.389 198.296C102.389 199.834 103.637 201.066 105.202 201.066C106.767 201.066 108.015 199.834 108.015 198.296C107.697 197.684 106.143 195.525 105.202 194.292Z" fill="#0B93E2"/>
<path d="M128.624 224.17C122.691 224.17 118.007 219.545 118.007 213.698C118.007 210 120.503 207.229 122.691 204.459C123.632 203.226 124.563 202.299 125.187 201.382C125.811 200.15 127.059 199.538 128.624 199.538C129.871 199.538 131.119 200.15 132.06 201.382C132.684 202.309 133.625 203.226 134.556 204.459C137.051 207.229 139.24 210.316 139.24 213.698C138.923 219.555 134.239 224.17 128.624 224.17ZM128.624 209.695C127.683 210.927 125.811 213.087 125.811 213.698C125.811 215.236 127.059 216.469 128.624 216.469C130.189 216.469 131.436 215.236 131.436 213.698C131.119 213.087 129.565 210.927 128.624 209.695Z" fill="#0B93E2"/>
</svg>
