<?xml version="1.0" encoding="UTF-8"?>
<svg id="_흐림" data-name="흐림" xmlns="http://www.w3.org/2000/svg" viewBox="0 0 283.46 283.46">
  <defs>
    <style>
      .cls-1 {
        fill: #9bc9ff;
      }

      .cls-2 {
        fill: #1e81ce;
      }
    </style>
  </defs>
  <g id="F738_Cloud_clouded_overcast" data-name="F738, Cloud, clouded, overcast">
    <path class="cls-1" d="M189.34,121.89c12.09,0,22.92,4.73,30.88,12.61,7.96,7.88,12.73,18.6,12.73,30.57,0,23.95-19.74,43.49-43.93,43.49H93.52c-12.09,0-22.92-4.73-30.88-12.61-7.96-7.88-12.73-18.59-12.73-30.57s4.78-22.69,12.73-30.57c7.96-7.88,18.78-12.61,30.88-12.61,0-26.16,21.33-47.28,47.75-47.28s48.07,20.8,48.07,46.96Z"/>
    <path class="cls-2" d="M189.34,212.35H93.84c-12.73,0-24.83-5.04-33.74-13.87-8.91-8.82-14.01-20.8-14.01-33.41s5.09-24.58,14.01-33.41c7.96-7.88,18.46-12.92,29.92-13.56,1.91-26.47,24.51-47.28,51.57-47.28s49.66,20.8,51.57,47.28c11.46,.95,21.96,5.68,29.92,13.56,8.91,8.82,14.01,20.8,14.01,33.41,0,26.16-21.33,47.28-47.75,47.28Zm-47.75-133.95c-24.19,0-43.93,19.54-43.93,43.49,0,2.21-1.91,4.1-4.14,4.1-10.5,0-20.69,4.1-28.01,11.66-7.32,6.93-11.46,17.02-11.46,27.42s4.14,20.49,11.78,27.74c7.64,7.57,17.51,11.66,28.01,11.66h95.5c21.96,0,39.79-17.65,39.79-39.4,0-10.4-4.14-20.49-11.78-27.74-7.64-7.57-17.51-11.66-28.01-11.66-2.23,0-4.14-1.89-4.14-4.1,.32-23.64-19.42-43.18-43.61-43.18Z"/>
    <path class="cls-2" d="M113.9,121.89c-2.23,0-4.14-1.89-4.14-4.1,0-5.04,3.18-11.66,7.96-17.34,5.73-6.62,12.73-10.4,19.74-10.4,2.23,0,4.14,1.89,4.14,4.1s-1.91,4.1-4.14,4.1c-11.14,0-20.05,14.18-20.05,19.86,.32,1.89-1.59,3.78-3.5,3.78Z"/>
    <path class="cls-2" d="M153.37,165.07c-1.91,0-3.5-1.26-3.82-3.15-.64-2.21,.96-4.1,2.87-4.73,13.05-3.15,22.6-10.09,28.33-20.49,4.14-7.88,4.46-15.13,4.46-15.13,0-2.21,1.91-3.78,4.14-3.78s3.82,1.89,3.82,4.1c0,.32-.32,8.82-5.41,18.28-4.46,8.83-14,20.17-33.74,24.9h-.64Z"/>
  </g>
</svg>