<?xml version="1.0" encoding="UTF-8"?>
<svg id="_여우비" data-name="여우비" xmlns="http://www.w3.org/2000/svg" viewBox="0 0 283.46 283.46">
  <defs>
    <style>
      .cls-1 {
        fill: #c2e3f7;
      }

      .cls-2 {
        fill: #0b93e2;
      }
    </style>
  </defs>
  <g id="_731_Cloud_Snowy_Weather" data-name="731, Cloud, Snowy, Weather">
    <g>
      <path class="cls-1" d="M107.91,75.68c9.28,1.18,16.46,7.41,19.75,15.41-3.29,2.96-5.69,6.52-7.78,10.37-3.29-1.48-6.88-2.07-10.47-2.07-10.47,0-19.75,6.22-23.64,14.82-3.89-5.04-5.69-11.26-5.09-17.78,1.79-13.04,14.06-22.52,27.23-20.74Z"/>
      <path class="cls-1" d="M193.5,124.57h-.6c.3-2.07,.6-4.15,.6-6.22,0-20.74-17.36-37.63-38.9-37.63-10.47,0-20.05,4.15-26.93,10.67-3.29,2.96-5.69,6.52-7.78,10.37-3.29-1.48-6.88-2.07-10.47-2.07-10.47,0-19.75,6.22-23.64,14.82-1.5,3.26-2.09,6.52-2.09,10.37v.59h0c-14.66,2.96-26.03,15.7-26.03,30.82v.89c.6,17.19,14.96,31.11,32.62,31.11h105.04c17.36-.59,30.52-14.82,30.52-32s-14.36-31.7-32.32-31.7Z"/>
      <path class="cls-2" d="M219.24,96.42c.6,.59,1.2,1.48,1.2,2.67,0,.89-.3,2.07-1.2,2.67-.6,.59-1.5,1.18-2.69,1.18-2.09,0-3.89-1.78-3.89-3.85,0-.89,.3-2.07,1.2-2.67,.6-.59,1.5-1.19,2.69-1.19,.9,0,2.09,.59,2.69,1.19Z"/>
      <path class="cls-2" d="M196.79,62.94c.6,.59,1.2,1.48,1.2,2.67,0,.89-.3,2.07-1.2,2.67-.6,.59-1.5,1.18-2.69,1.18-2.09,0-3.89-1.78-3.89-3.85,0-.89,.3-2.07,1.2-2.67,.6-.59,1.5-1.18,2.69-1.18,.9,.3,2.09,.59,2.69,1.18Z"/>
      <path class="cls-2" d="M183.02,213.76c0,.59-.3,1.19-.6,1.78-.6,1.18-2.09,1.78-3.29,1.78-.6,0-1.2-.3-1.79-.59-1.8-1.18-2.4-3.26-1.2-5.04,.6-1.18,1.79-1.78,3.29-1.78,.6,0,1.2,.3,1.8,.59,.9,.89,1.79,2.07,1.79,3.26Z"/>
      <path class="cls-2" d="M181.83,126.06c.6,.59,1.2,1.48,1.2,2.67,0,.89-.3,2.07-1.2,2.67-.6,.59-1.5,1.18-2.69,1.18-2.09,0-3.89-1.78-3.89-3.85,0-.89,.3-2.07,1.2-2.67,.6-.59,1.5-1.19,2.69-1.19s2.09,.59,2.69,1.19Z"/>
      <path class="cls-2" d="M156.69,228.58c0,.59-.3,1.19-.6,1.78-.6,1.18-2.09,1.78-3.29,1.78-.6,0-1.2-.3-1.79-.59-1.8-1.18-2.4-3.26-1.2-5.04,.6-1.18,1.8-1.78,3.29-1.78,.6,0,1.2,.3,1.79,.59,1.2,.89,1.8,2.07,1.8,3.26Z"/>
      <path class="cls-2" d="M150.11,213.76c0,.59-.3,1.19-.6,1.78-.6,1.18-2.09,1.78-3.29,1.78-.6,0-1.2-.3-1.79-.59-1.8-1.18-2.4-3.26-1.2-5.04,.6-1.18,1.8-1.78,3.29-1.78,.6,0,1.2,.3,1.8,.59,.9,.89,1.8,2.07,1.8,3.26Z"/>
      <path class="cls-2" d="M123.77,228.58c0,.59-.3,1.19-.6,1.78-.6,1.18-2.09,1.78-3.29,1.78-.6,0-1.2-.3-1.79-.59-1.8-1.18-2.39-3.26-1.2-5.04,.6-1.18,2.1-1.78,3.29-1.78,.6,0,1.2,.3,1.79,.59,1.2,.89,1.8,2.07,1.8,3.26Z"/>
      <path class="cls-2" d="M117.19,213.76c0,.59-.3,1.19-.6,1.78-.6,1.18-2.1,1.78-3.29,1.78-.6,0-1.2-.3-1.79-.59-1.8-1.18-2.4-3.26-1.2-5.04,.6-1.18,2.09-1.78,3.29-1.78,.6,0,1.2,.3,1.79,.59,.9,.89,1.8,2.07,1.8,3.26Z"/>
      <path class="cls-2" d="M90.85,228.58c0,.59-.3,1.19-.6,1.78-.6,1.18-2.1,1.78-3.29,1.78-.6,0-1.2-.3-1.8-.59-1.8-1.18-2.39-3.26-1.2-5.04,.6-1.18,1.8-1.78,3.29-1.78,.6,0,1.2,.3,1.79,.59,1.2,.89,1.8,2.07,1.8,3.26Z"/>
      <path class="cls-2" d="M84.27,213.76c0,.59-.3,1.19-.6,1.78-.6,1.18-2.09,1.78-3.29,1.78-.6,0-1.2-.3-1.79-.59-1.8-1.18-2.39-3.26-1.2-5.04,.6-1.18,1.8-1.78,3.29-1.78,.6,0,1.2,.3,1.79,.59,.9,.89,1.8,2.07,1.8,3.26Z"/>
      <path class="cls-2" d="M178.84,121.31c-2.09,0-3.59-1.48-3.59-3.56-.6-15.41-13.47-18.67-14.07-18.67-2.09-.59-3.29-2.37-2.69-4.44,.6-2.07,2.4-3.26,4.49-2.67,.6,0,5.09,1.18,9.58,4.74,4.49,3.56,9.58,9.78,10.17,20.74-.3,2.07-1.79,3.56-3.89,3.85h0Z"/>
      <path class="cls-2" d="M104.02,136.43c-.9,0-2.1-.3-2.69-1.19-6.88-7.7-16.76-6.52-17.36-6.52h-.6c-2.09,0-3.89-1.78-3.89-3.85s1.5-3.55,3.29-3.55c1.5-.3,14.36-1.18,23.64,9.19,1.5,1.48,1.2,3.85-.3,5.33-.3,.3-1.2,.59-2.09,.59Z"/>
      <path class="cls-2" d="M85.77,118.06c-.9,0-1.8-.3-2.69-.89l-.3-.3c-4.79-5.93-6.58-13.33-5.69-20.74s4.79-13.93,10.77-18.37c5.98-4.44,13.17-6.52,20.65-5.63,10.47,1.18,19.15,8.3,22.74,17.78,.6,1.78-.3,4.15-2.09,4.74-1.79,.59-4.19-.3-4.79-2.07-2.69-7.11-8.98-12.15-16.76-13.04-5.39-.59-10.77,.89-15.26,4.15-4.49,3.26-7.18,8-7.78,13.63-.6,5.33,.9,10.67,4.19,15.11,1.2,1.48,1.2,3.55-.3,4.74-.9,.3-1.8,.89-2.69,.89Z"/>
      <path class="cls-2" d="M109.11,70.05h-.6c-2.09-.3-3.59-2.07-3.29-4.15l1.5-11.56c.3-2.07,2.09-3.56,4.19-3.26s3.59,2.07,3.29,4.15l-1.5,11.56c0,1.78-1.79,3.26-3.59,3.26Z"/>
      <path class="cls-2" d="M125.27,76.57c-.9,0-1.5-.3-2.39-.89-1.5-1.19-2.1-3.56-.6-5.33l7.18-9.19c1.2-1.48,3.59-2.07,5.39-.59,1.5,1.18,2.1,3.55,.6,5.33l-7.18,9.19c-.6,.89-1.79,1.48-2.99,1.48Z"/>
      <path class="cls-2" d="M63.02,120.43c-1.5,0-2.99-.89-3.59-2.37-.9-1.78,0-4.15,2.1-4.74l10.77-4.44c1.8-.89,4.19,0,4.79,2.07,.9,1.78,0,4.15-2.09,4.74l-10.77,4.44c-.3,.3-.9,.3-1.2,.3Z"/>
      <path class="cls-2" d="M71.4,98.79h-.6l-11.37-1.48c-2.09-.3-3.59-2.07-3.29-4.15,.3-2.07,2.09-3.56,4.19-3.26l11.67,1.48c2.09,.3,3.59,2.07,3.29,4.15-.6,2.07-2.1,3.26-3.89,3.26Z"/>
      <path class="cls-2" d="M77.99,82.79c-.9,0-1.5-.3-2.39-.89l-9.28-7.11c-1.5-1.18-2.1-3.55-.6-5.33,1.2-1.48,3.59-2.07,5.39-.59l9.28,7.11c1.5,1.19,2.09,3.56,.6,5.33-.9,1.18-1.79,1.48-2.99,1.48Z"/>
      <path class="cls-2" d="M91.75,72.42c-1.5,0-2.99-.89-3.59-2.37l-4.49-10.67c-.9-1.78,0-4.15,2.09-4.74,1.79-.89,4.19,0,4.79,2.07l4.49,10.67c.9,1.78,0,4.15-2.1,4.74,0,0-.6,.3-1.2,.3Z"/>
      <path class="cls-2" d="M195.3,191.54H90.26c-9.58,0-18.55-3.55-25.14-10.07-6.88-6.52-10.77-15.11-11.07-24.59v-.89c0-15.7,10.77-29.33,26.03-33.78,.3-3.26,1.2-6.52,2.39-9.48,4.79-10.37,15.26-17.19,26.93-17.19,2.99,0,5.98,.3,8.68,1.18,1.79-2.96,4.19-5.93,6.88-8.59,8.08-7.41,18.55-11.56,29.63-11.56,23.34,0,42.49,18.67,42.49,41.48v2.67c18.25,1.78,32.32,16.89,32.32,34.97,.3,19.56-14.66,35.26-34.11,35.85h0ZM87.26,124.87s0,.3,0,0c0,2.07-1.2,3.56-2.99,3.85-13.17,2.67-23.04,13.93-23.04,27.26v.89c.3,15.11,13.46,27.26,28.73,27.26h105.04c14.96-.59,26.93-12.74,26.93-28.15s-12.87-27.85-28.73-27.85h-.6c-1.2,0-2.09-.59-2.99-1.18-.6-.89-.9-2.07-.9-2.96,.3-1.78,.6-3.85,.6-5.63,0-18.67-15.86-34.08-35.01-34.08-9.27,0-17.96,3.55-24.54,9.78-2.99,2.67-5.39,5.93-7.18,9.48-.9,1.78-2.99,2.37-4.79,1.78-2.69-1.19-5.99-1.78-8.98-1.78-8.68,0-16.76,5.04-20.35,12.74-1.2,2.67-1.8,5.63-1.8,8.59q.6-.3,.6,0h0Z"/>
      <path class="cls-2" d="M186.32,207.84c-.9,0-1.5-.3-2.39-.89-1.5-1.18-2.09-3.56-.6-5.33l4.19-5.33c1.2-1.48,3.59-2.07,5.39-.59,1.5,1.18,2.09,3.55,.6,5.33l-4.19,5.33c-.9,1.19-1.79,1.48-2.99,1.48Z"/>
      <path class="cls-2" d="M153.4,207.84c-.9,0-1.5-.3-2.39-.89-1.5-1.18-2.09-3.56-.6-5.33l4.19-5.33c1.2-1.48,3.59-2.07,5.39-.59,1.5,1.18,2.09,3.55,.6,5.33l-4.19,5.33c-.9,1.19-1.79,1.48-2.99,1.48Z"/>
      <path class="cls-2" d="M120.48,207.84c-.9,0-1.5-.3-2.39-.89-1.5-1.18-2.09-3.56-.6-5.33l4.19-5.33c1.2-1.48,3.59-2.07,5.38-.59,1.5,1.18,2.1,3.55,.6,5.33l-4.19,5.33c-.9,1.19-1.79,1.48-2.99,1.48Z"/>
      <path class="cls-2" d="M87.56,207.84c-.9,0-1.5-.3-2.39-.89-1.5-1.18-2.1-3.56-.6-5.33l4.19-5.33c1.2-1.48,3.59-2.07,5.39-.59,1.5,1.18,2.09,3.55,.6,5.33l-4.19,5.33c-.6,1.19-1.8,1.48-2.99,1.48Z"/>
      <path class="cls-2" d="M159.98,222.65c-.9,0-1.5-.3-2.39-.89-1.5-1.18-2.09-3.56-.6-5.33l4.19-5.33c1.2-1.48,3.59-2.07,5.39-.59,1.5,1.18,2.09,3.55,.6,5.33l-4.19,5.33c-.6,1.19-1.8,1.48-3,1.48Z"/>
      <path class="cls-2" d="M127.06,222.65c-.9,0-1.5-.3-2.39-.89-1.5-1.18-2.09-3.56-.6-5.33l4.19-5.33c1.2-1.48,3.59-2.07,5.39-.59,1.5,1.18,2.09,3.55,.6,5.33l-4.19,5.33c-.6,1.19-1.8,1.48-3,1.48Z"/>
      <path class="cls-2" d="M94.15,222.65c-.9,0-1.5-.3-2.4-.89-1.5-1.18-2.1-3.56-.6-5.33l4.19-5.33c1.2-1.48,3.59-2.07,5.39-.59,1.5,1.18,2.1,3.55,.6,5.33l-4.19,5.33c-.6,1.19-1.8,1.48-2.99,1.48Z"/>
    </g>
  </g>
</svg>