<?xml version="1.0" encoding="UTF-8"?>
<svg id="_눈" data-name="눈" xmlns="http://www.w3.org/2000/svg" viewBox="0 0 283.46 283.46">
  <defs>
    <style>
      .cls-1 {
        fill: #1e81ce;
      }
    </style>
  </defs>
  <g id="F737_Frost_snow_snowflakes" data-name="F737, Frost, snow, snowflakes">
    <path class="cls-1" d="M141.59,145.37c-1.98,0-3.67-1.68-3.67-3.64V61.45c0-1.96,1.69-3.64,3.67-3.64s3.67,1.68,3.67,3.64v80.56c0,1.68-1.69,3.36-3.67,3.36Z"/>
    <path class="cls-1" d="M141.59,96.42c-.85,0-1.7-.28-2.54-1.12l-21.19-20.98c-1.41-1.4-1.41-3.64,0-5.03,1.41-1.4,3.67-1.4,5.08,0l21.19,20.98c1.41,1.4,1.41,3.64,0,5.03-.85,.56-1.7,1.12-2.54,1.12Z"/>
    <path class="cls-1" d="M141.59,96.42c-.85,0-1.7-.28-2.54-1.12-1.41-1.4-1.41-3.64,0-5.03l21.19-20.98c1.41-1.4,3.67-1.4,5.08,0,1.41,1.4,1.41,3.64,0,5.03l-21.19,20.98c-.85,.56-1.7,1.12-2.54,1.12Z"/>
    <path class="cls-1" d="M141.59,225.65c-1.98,0-3.67-1.68-3.67-3.64v-80.28c0-1.96,1.69-3.64,3.67-3.64s3.67,1.68,3.67,3.64v80.56c0,1.68-1.69,3.36-3.67,3.36Z"/>
    <path class="cls-1" d="M120.4,215.3c-.85,0-1.7-.28-2.54-1.12-1.41-1.4-1.41-3.64,0-5.03l21.19-20.98c1.41-1.4,3.67-1.4,5.08,0,1.41,1.4,1.41,3.64,0,5.03l-21.19,20.98c-.85,.56-1.69,1.12-2.54,1.12Z"/>
    <path class="cls-1" d="M162.78,215.3c-.85,0-1.7-.28-2.54-1.12l-21.19-20.98c-1.41-1.4-1.41-3.64,0-5.03s3.67-1.4,5.08,0l21.19,20.98c1.41,1.4,1.41,3.64,0,5.03-.85,.56-1.7,1.12-2.54,1.12Z"/>
    <path class="cls-1" d="M141.59,145.37c-.85,0-1.7-.28-2.54-1.12-1.41-1.4-1.41-3.64,0-5.03l57.35-56.78c1.41-1.4,3.67-1.4,5.08,0s1.41,3.64,0,5.04l-57.35,56.78c-.85,.56-1.7,1.12-2.54,1.12Z"/>
    <path class="cls-1" d="M176.62,110.68c-1.98,0-3.67-1.68-3.67-3.64v-29.65c0-1.96,1.7-3.64,3.67-3.64s3.67,1.68,3.67,3.64v29.65c-.28,1.96-1.7,3.64-3.67,3.64Z"/>
    <path class="cls-1" d="M206.57,110.68h-29.95c-1.98,0-3.67-1.68-3.67-3.64s1.7-3.64,3.67-3.64h29.95c1.98,0,3.67,1.68,3.67,3.64s-1.7,3.64-3.67,3.64Z"/>
    <path class="cls-1" d="M84.24,202.15c-.85,0-1.69-.28-2.54-1.12-1.41-1.4-1.41-3.64,0-5.04l57.35-56.78c1.41-1.4,3.67-1.4,5.08,0,1.41,1.4,1.41,3.64,0,5.03l-57.35,56.78c-.85,.84-1.7,1.12-2.54,1.12Z"/>
    <path class="cls-1" d="M106.56,179.77h-29.94c-1.98,0-3.67-1.68-3.67-3.64s1.69-3.64,3.67-3.64h29.94c1.98,0,3.67,1.68,3.67,3.64,0,2.24-1.69,3.64-3.67,3.64Z"/>
    <path class="cls-1" d="M106.56,209.42c-1.98,0-3.67-1.68-3.67-3.64v-29.37c0-1.96,1.69-3.64,3.67-3.64s3.67,1.68,3.67,3.64v29.65c0,1.96-1.69,3.36-3.67,3.36Z"/>
    <path class="cls-1" d="M222.95,145.37h-81.36c-1.98,0-3.67-1.68-3.67-3.64s1.69-3.64,3.67-3.64h81.36c1.98,0,3.67,1.68,3.67,3.64-.28,1.96-1.98,3.64-3.67,3.64Z"/>
    <path class="cls-1" d="M191.03,145.37c-.85,0-1.7-.28-2.54-1.12-1.41-1.4-1.41-3.64,0-5.03l21.19-20.98c1.41-1.4,3.67-1.4,5.08,0,1.41,1.4,1.41,3.64,0,5.03l-21.19,20.98c-.85,.56-1.7,1.12-2.54,1.12Z"/>
    <path class="cls-1" d="M212.21,166.35c-.85,0-1.69-.28-2.54-1.12l-21.19-20.98c-1.41-1.4-1.41-3.64,0-5.03s3.67-1.4,5.08,0l21.19,20.98c1.41,1.4,1.41,3.64,0,5.03-.85,.56-1.7,1.12-2.54,1.12Z"/>
    <path class="cls-1" d="M141.59,145.37H60.51c-1.98,0-3.67-1.68-3.67-3.64s1.69-3.64,3.67-3.64h81.36c1.98,0,3.67,1.68,3.67,3.64-.28,1.96-1.98,3.64-3.96,3.64Z"/>
    <path class="cls-1" d="M92.15,145.37c-.85,0-1.69-.28-2.54-1.12l-21.19-20.98c-1.41-1.4-1.41-3.64,0-5.03,1.41-1.4,3.67-1.4,5.08,0l21.19,20.98c1.41,1.4,1.41,3.64,0,5.03-.85,.56-1.69,1.12-2.54,1.12Z"/>
    <path class="cls-1" d="M70.97,166.35c-.85,0-1.69-.28-2.54-1.12-1.41-1.4-1.41-3.64,0-5.03l21.19-20.98c1.41-1.4,3.67-1.4,5.08,0s1.41,3.64,0,5.03l-21.19,20.98c-.85,.56-1.7,1.12-2.54,1.12Z"/>
    <path class="cls-1" d="M198.94,202.15c-.85,0-1.69-.28-2.54-1.12l-57.35-56.78c-1.41-1.4-1.41-3.64,0-5.03s3.67-1.4,5.08,0l57.35,56.78c1.41,1.4,1.41,3.64,0,5.04-.57,.84-1.7,1.12-2.54,1.12Z"/>
    <path class="cls-1" d="M206.57,179.77h-29.95c-1.98,0-3.67-1.68-3.67-3.64s1.7-3.64,3.67-3.64h29.95c1.98,0,3.67,1.68,3.67,3.64-.28,2.24-1.7,3.64-3.67,3.64Z"/>
    <path class="cls-1" d="M176.62,209.42c-1.98,0-3.67-1.68-3.67-3.64v-29.37c0-1.96,1.7-3.64,3.67-3.64s3.67,1.68,3.67,3.64v29.65c-.28,1.96-1.7,3.36-3.67,3.36Z"/>
    <path class="cls-1" d="M141.59,145.37c-.85,0-1.7-.28-2.54-1.12l-57.35-56.78c-1.41-1.4-1.41-3.64,0-5.04s3.67-1.4,5.08,0l57.35,56.78c1.41,1.4,1.41,3.64,0,5.03-.85,.56-1.7,1.12-2.54,1.12Z"/>
    <path class="cls-1" d="M106.56,110.68c-1.98,0-3.67-1.68-3.67-3.64v-29.65c0-1.96,1.69-3.64,3.67-3.64s3.67,1.68,3.67,3.64v29.65c0,1.96-1.69,3.64-3.67,3.64Z"/>
    <path class="cls-1" d="M106.56,110.68h-29.94c-1.98,0-3.67-1.68-3.67-3.64s1.69-3.64,3.67-3.64h29.94c1.98,0,3.67,1.68,3.67,3.64s-1.69,3.64-3.67,3.64Z"/>
  </g>
</svg>