<?xml version="1.0" encoding="UTF-8"?>
<svg id="_맑음번개" data-name="맑음번개" xmlns="http://www.w3.org/2000/svg" viewBox="0 0 283.46 283.46">
  <defs>
    <style>
      .cls-1 {
        fill: #fff;
      }

      .cls-2 {
        fill: #c2e3f7;
      }

      .cls-3 {
        fill: #0b93e2;
      }
    </style>
  </defs>
  <g id="_732_Storm_Weather_Sun" data-name="732, Storm, Weather, Sun">
    <g>
      <path class="cls-2" d="M105.87,71.1c10.01,1.28,17.76,7.99,21.31,16.62-3.55,3.2-6.13,7.03-8.39,11.19-3.55-1.6-7.43-2.24-11.3-2.24-11.3,0-21.31,6.71-25.51,15.98-4.2-5.43-6.13-12.15-5.49-19.18,1.94-14.07,15.17-24.3,29.38-22.38Z"/>
      <polygon class="cls-1" points="165.28 181.71 160.44 190.98 138.48 234.78 138.48 200.57 111.36 200.57 115.24 192.58 138.48 143.67 138.48 181.71 165.28 181.71"/>
      <path class="cls-2" d="M81.98,112.66c4.2-9.59,14.21-15.98,25.51-15.98,3.87,0,7.75,.96,11.3,2.24,2.26-4.16,4.84-7.99,8.39-11.19,7.43-7.03,17.76-11.51,29.06-11.51,23.25,0,41.97,18.22,41.97,40.6,0,2.24-.32,4.48-.64,6.71h.64c19.37,0,34.87,15.35,34.87,33.89s-14.2,33.89-32.93,34.53h-37.45l-1.94-.96,4.84-9.27h-26.8v-38.04l-22.92,48.91-1.29-.64h-27.44c-19.05,0-34.55-14.71-35.19-33.57v-.96c0-16.3,11.95-30.05,28.09-33.25h0v-.64c-.64-3.84,.32-7.35,1.94-10.87Z"/>
      <path class="cls-3" d="M225.98,93.48c.65,.64,1.29,1.6,1.29,2.88s-.32,2.24-1.29,2.88c-.65,.64-1.94,.96-2.91,.96-2.26,0-4.2-1.92-4.2-4.16,0-.96,.32-2.24,1.29-2.88,.65-.64,1.61-1.28,2.9-1.28,.97,.32,2.26,.64,2.91,1.6Z"/>
      <path class="cls-3" d="M197.57,65.35c.64,.64,1.29,1.6,1.29,2.88,0,.96-.32,2.24-1.29,2.88-.65,.64-1.62,1.28-2.91,1.28-2.26,0-4.2-1.92-4.2-4.16,0-.96,.32-2.24,1.29-2.88,.97-.64,1.61-1.28,2.91-1.28s2.26,.64,2.91,1.28Z"/>
      <path class="cls-3" d="M182.39,120.33c-2.26,0-3.87-1.6-3.87-3.84-.65-16.62-14.53-20.14-15.18-20.14-2.26-.64-3.55-2.56-2.9-4.8,.64-2.24,2.58-3.52,4.84-2.88,.65,0,5.49,1.28,10.33,5.12,4.84,3.84,10.33,10.55,10.98,22.38-.32,1.92-1.94,3.84-4.2,4.16,0-.32,0,0,0,0Z"/>
      <path class="cls-3" d="M101.68,136.64c-.97,0-2.26-.32-2.9-1.28-7.43-8.31-18.08-7.03-18.73-7.03h-.64c-2.26,0-4.2-1.92-4.2-4.16s1.61-3.84,3.55-3.84c1.61-.32,15.5-1.28,25.51,9.91,1.61,1.6,1.29,4.16-.32,5.76-.32,.32-1.29,.64-2.26,.64Z"/>
      <path class="cls-3" d="M81.98,116.82c-.97,0-1.94-.32-2.9-.96l-.32-.32c-5.17-6.39-7.1-14.39-6.13-22.38,.97-7.99,5.17-15.02,11.62-19.82s14.21-7.03,22.28-6.07c11.3,1.28,20.66,8.95,24.54,19.18,.65,1.92-.32,4.48-2.26,5.11-1.94,.64-4.52-.32-5.17-2.24-2.91-7.67-9.69-13.11-18.08-14.07-5.81-.64-11.62,.96-16.46,4.48-4.84,3.52-7.75,8.63-8.39,14.71-.65,5.75,.97,11.51,4.52,16.3,1.29,1.6,1.29,3.84-.32,5.12-.97,.32-1.94,.96-2.91,.96Z"/>
      <path class="cls-3" d="M107.16,65.03h-.64c-2.26-.32-3.87-2.24-3.55-4.48l1.61-12.47c.32-2.24,2.26-3.84,4.52-3.52,2.26,.32,3.87,2.24,3.55,4.48l-1.62,12.47c0,1.92-1.94,3.52-3.87,3.52Z"/>
      <path class="cls-3" d="M124.6,72.06c-.97,0-1.62-.32-2.58-.96-1.61-1.28-2.26-3.84-.65-5.75l7.75-9.91c1.29-1.6,3.87-2.24,5.81-.64,1.61,1.28,2.26,3.84,.65,5.76l-7.75,9.91c-.65,.96-1.94,1.6-3.23,1.6Z"/>
      <path class="cls-3" d="M57.45,119.38c-1.61,0-3.23-.96-3.87-2.56-.97-1.92,0-4.48,2.26-5.12l11.62-4.8c1.94-.96,4.52,0,5.17,2.24,.97,1.92,0,4.48-2.26,5.12l-11.62,4.8c-.32,.32-.97,.32-1.29,.32Z"/>
      <path class="cls-3" d="M66.49,96.04h-.64l-12.59-1.6c-2.26-.32-3.87-2.24-3.55-4.48,.32-2.24,2.26-3.84,4.52-3.52l12.59,1.6c2.26,.32,3.87,2.24,3.55,4.48-.32,2.24-1.94,3.52-3.87,3.52Z"/>
      <path class="cls-3" d="M73.59,78.78c-.97,0-1.62-.32-2.58-.96l-10.01-7.67c-1.61-1.28-2.26-3.84-.65-5.76,1.29-1.6,3.87-2.24,5.81-.64l10.01,7.67c1.61,1.28,2.26,3.84,.65,5.75-.97,1.28-1.94,1.6-3.23,1.6Z"/>
      <path class="cls-3" d="M88.44,67.27c-1.61,0-3.23-.96-3.87-2.56l-4.84-11.51c-.97-1.92,0-4.48,2.26-5.11,1.94-.96,4.52,0,5.17,2.24l4.84,11.51c.97,1.92,0,4.48-2.26,5.12,0,.32-.64,.32-1.29,.32Z"/>
      <path class="cls-3" d="M200.15,196.1h-37.45c-2.26,0-4.2-1.92-4.2-4.16s1.94-4.16,4.2-4.16h37.45c16.14-.64,29.06-13.75,29.06-30.37s-13.88-30.05-30.99-30.05h-.64c-1.29,0-2.26-.64-3.23-1.28-.65-.96-.97-2.24-.97-3.2,.32-1.92,.65-4.16,.65-6.07,0-20.14-17.11-36.76-37.77-36.76-10.01,0-19.37,3.84-26.47,10.55-3.23,2.88-5.81,6.39-7.75,10.23-.97,1.92-3.23,2.56-5.17,1.92-2.9-1.28-6.46-1.92-9.69-1.92-9.36,0-18.08,5.43-21.95,13.75-1.29,2.88-1.94,6.07-1.94,9.27v.32h0v.32c0,1.92-1.29,3.52-3.23,3.84-14.2,2.88-24.86,15.03-24.86,29.41v.96c.32,16.3,14.53,29.41,30.99,29.41h27.44c2.26,0,4.2,1.92,4.2,4.16s-1.94,4.16-4.2,4.16h-27.44c-10.33,0-20.02-3.84-27.12-10.87-7.43-7.03-11.62-16.3-11.95-26.53v-.96c0-16.94,11.62-31.65,28.09-36.44,.32-3.52,1.29-7.03,2.58-10.23,5.17-11.19,16.47-18.54,29.06-18.54,3.23,0,6.46,.32,9.36,1.28,1.94-3.2,4.52-6.39,7.43-9.27,8.72-7.99,20.02-12.47,31.96-12.47,25.18,0,45.85,20.14,45.85,44.76v2.88c19.69,1.92,34.87,18.22,34.87,37.72,.97,20.78-15.18,37.72-36.16,38.36h0Z"/>
      <path class="cls-3" d="M138.48,238.94h-.97c-1.94-.32-3.23-1.92-3.23-3.84v-30.05h-22.92c-1.29,0-2.58-.64-3.55-1.92-.97-1.28-.97-2.56-.32-3.84l26.8-56.9c.64-1.6,2.58-2.56,4.52-2.24,1.94,.32,3.23,1.92,3.23,3.84v33.88h22.92c1.29,0,2.58,.64,3.55,1.92,.65,1.28,.65,2.56,.32,3.84l-26.8,53.07c-.65,1.28-2.26,2.24-3.55,2.24Zm-20.66-42.2h20.66c2.26,0,4.2,1.92,4.2,4.16v17.26l16.14-32.29h-20.34c-2.26,0-4.2-1.92-4.2-4.16v-20.14l-16.47,35.16Z"/>
    </g>
  </g>
</svg>