<?xml version="1.0" encoding="UTF-8"?>
<svg id="_여우비_번개" data-name="여우비+번개" xmlns="http://www.w3.org/2000/svg" viewBox="0 0 283.46 283.46">
  <defs>
    <style>
      .cls-1 {
        fill: #fff;
      }

      .cls-2 {
        fill: #c2e3f7;
      }

      .cls-3 {
        fill: #0b93e2;
      }
    </style>
  </defs>
  <g id="_735_Cloud_Rain_Sun_Weather" data-name="735, Cloud, Rain, Sun, Weather">
    <g>
      <path class="cls-2" d="M89.21,186.88c-18.02,0-32.68-13.91-33.29-31.75v-.91c0-15.42,11.3-28.42,26.57-31.45h0v-.61c0-3.63,.92-7.26,2.14-10.58,3.97-9.07,13.44-15.12,24.12-15.12,3.66,0,7.33,.91,10.69,2.12,2.14-3.93,4.58-7.56,7.94-10.58,7.03-6.65,16.8-10.89,27.49-10.89,21.99,0,39.7,17.24,39.7,38.4,0,2.12-.31,4.23-.61,6.35h.61c18.32,0,32.98,14.52,32.98,32.05s-13.44,32.05-31.15,32.66l-107.19,.3h0Z"/>
      <path class="cls-2" d="M192.73,210.76c0,3.63-2.75,6.35-6.41,6.35s-6.41-2.72-6.41-6.35c0-3.33,4.28-6.95,6.41-10.28,2.14,3.63,6.41,6.96,6.41,10.28Z"/>
      <path class="cls-1" d="M169.83,225.88c0,3.63-2.75,6.35-6.41,6.35s-6.41-2.72-6.41-6.35c0-3.33,4.28-6.95,6.41-10.28,2.14,3.63,6.41,6.96,6.41,10.28Z"/>
      <path class="cls-1" d="M120.36,225.88c0,3.63-2.75,6.35-6.41,6.35s-6.41-2.72-6.41-6.35c0-3.33,4.28-6.65,6.41-10.28,2.14,3.63,6.41,7.26,6.41,10.28Z"/>
      <path class="cls-2" d="M97.45,210.76c0,3.63-2.75,6.35-6.41,6.35s-6.41-2.72-6.41-6.35c0-3.33,4.27-6.65,6.41-10.28,2.14,3.63,6.41,7.26,6.41,10.28Z"/>
      <polygon class="cls-1" points="163.42 177.2 158.83 185.97 138.07 227.4 138.07 195.04 112.41 195.04 116.08 187.48 138.07 141.22 138.07 177.2 163.42 177.2"/>
      <path class="cls-1" d="M107.22,72.57c9.47,1.21,16.8,7.56,20.16,15.72-3.36,3.02-5.8,6.65-7.94,10.58-3.36-1.51-7.03-2.12-10.69-2.12-10.69,0-20.16,6.35-24.12,15.12-3.97-5.14-5.8-11.49-5.19-18.14,1.83-13.61,14.35-22.98,27.79-21.17Z"/>
      <path class="cls-3" d="M220.83,93.74c.61,.6,1.22,1.51,1.22,2.72,0,.91-.31,2.12-1.22,2.72-.61,.61-1.53,1.21-2.75,1.21-2.14,0-3.97-1.81-3.97-3.93,0-.91,.31-2.12,1.22-2.72,.61-.61,1.53-1.21,2.75-1.21,.92,0,2.14,.3,2.75,1.21Z"/>
      <path class="cls-3" d="M216.86,199.58c.61,.6,1.22,1.51,1.22,2.72,0,.91-.31,2.12-1.22,2.72-.61,.61-1.53,1.21-2.75,1.21-2.14,0-3.97-1.81-3.97-3.93,0-.91,.3-2.12,1.22-2.72,.61-.61,1.53-1.21,2.75-1.21s2.14,.3,2.75,1.21Z"/>
      <path class="cls-3" d="M197.92,59.57c.61,.61,1.22,1.51,1.22,2.72,0,.91-.3,2.12-1.22,2.72-.61,.6-1.53,1.21-2.75,1.21-2.14,0-3.97-1.81-3.97-3.93,0-.91,.31-2.12,1.22-2.72,.61-.6,1.53-1.21,2.75-1.21,.92,0,2.14,.61,2.75,1.21Z"/>
      <path class="cls-3" d="M68.13,199.58c.61,.6,1.22,1.51,1.22,2.72,0,.91-.31,2.12-1.22,2.72-.61,.61-1.53,1.21-2.75,1.21-2.14,0-3.97-1.81-3.97-3.93,0-.91,.31-2.12,1.22-2.72,.61-.61,1.53-1.21,2.75-1.21,.92,0,2.14,.3,2.75,1.21Z"/>
      <path class="cls-3" d="M179.6,118.84c-2.14,0-3.66-1.51-3.66-3.63-.61-15.72-13.74-19.05-14.35-19.05-2.14-.6-3.36-2.42-2.75-4.54,.61-2.12,2.44-3.33,4.58-2.72,.61,0,5.19,1.21,9.77,4.84,4.58,3.63,9.77,9.98,10.38,21.17-.31,2.12-1.83,3.93-3.97,3.93h0Z"/>
      <path class="cls-3" d="M103.25,134.56c-.92,0-2.14-.3-2.75-1.21-7.02-7.86-17.1-6.65-17.71-6.65h-.61c-2.14,0-3.97-1.81-3.97-3.93s1.53-3.63,3.36-3.63c1.53-.3,14.66-1.21,24.13,9.37,1.53,1.51,1.22,3.93-.31,5.44-.3,.3-1.22,.61-2.14,.61Z"/>
      <path class="cls-3" d="M84.63,115.51c-.92,0-1.83-.3-2.75-.91l-.31-.3c-4.89-6.05-6.72-13.61-5.8-21.17,.92-7.56,4.89-14.21,10.99-18.75,6.11-4.54,13.44-6.65,21.07-5.75,10.69,1.21,19.54,8.47,23.21,18.14,.61,1.81-.3,4.23-2.14,4.84-1.83,.61-4.28-.3-4.89-2.12-2.75-7.26-9.16-12.4-17.1-13.31-5.5-.6-10.99,.91-15.57,4.23-4.58,3.33-7.33,8.16-7.94,13.91-.61,5.44,.92,10.89,4.28,15.42,1.22,1.51,1.22,3.63-.31,4.84-.92,.61-1.83,.91-2.75,.91Z"/>
      <path class="cls-3" d="M108.45,66.83h-.61c-2.14-.3-3.66-2.12-3.36-4.23l1.53-11.79c.31-2.12,2.14-3.63,4.28-3.33,2.14,.3,3.66,2.12,3.36,4.23l-1.53,11.79c0,1.81-1.83,3.33-3.66,3.33Z"/>
      <path class="cls-3" d="M124.94,73.48c-.92,0-1.53-.3-2.44-.91-1.53-1.21-2.14-3.63-.61-5.44l7.33-9.37c1.22-1.51,3.66-2.12,5.5-.61,1.53,1.21,2.14,3.63,.61,5.44l-7.33,9.37c-.61,.91-1.83,1.51-3.05,1.51Z"/>
      <path class="cls-3" d="M61.41,118.24c-1.53,0-3.05-.91-3.66-2.42-.92-1.81,0-4.23,2.14-4.84l10.99-4.54c1.83-.91,4.28,0,4.89,2.12,.92,1.81,0,4.23-2.14,4.84l-11,4.54c-.3,.3-.92,.3-1.22,.3Z"/>
      <path class="cls-3" d="M69.97,96.16h-.61l-11.91-1.51c-2.14-.3-3.66-2.12-3.36-4.23,.31-2.12,2.14-3.63,4.28-3.33l11.91,1.51c2.14,.3,3.66,2.12,3.36,4.23-.31,2.12-1.83,3.33-3.67,3.33Z"/>
      <path class="cls-3" d="M76.68,79.83c-.92,0-1.53-.3-2.44-.91l-9.47-7.26c-1.53-1.21-2.14-3.63-.61-5.44,1.22-1.51,3.66-2.12,5.5-.61l9.47,7.26c1.53,1.21,2.14,3.63,.61,5.44-.92,.91-1.83,1.51-3.05,1.51Z"/>
      <path class="cls-3" d="M90.73,68.95c-1.53,0-3.05-.91-3.66-2.42l-4.58-10.89c-.92-1.81,0-4.23,2.14-4.84,1.83-.91,4.27,0,4.89,2.12l4.58,10.89c.92,1.81,0,4.23-2.14,4.84,0,.3-.61,.3-1.22,.3Z"/>
      <path class="cls-3" d="M196.4,190.81h-35.43c-2.14,0-3.97-1.81-3.97-3.93s1.83-3.93,3.97-3.93h35.43c15.27-.61,27.49-13,27.49-28.73s-13.13-28.42-29.32-28.42h-.61c-1.22,0-2.14-.61-3.05-1.21-.92-.6-.92-2.12-.92-3.02,.31-1.81,.61-3.93,.61-5.75,0-19.05-16.19-34.77-35.73-34.77-9.47,0-18.32,3.63-25.04,9.98-3.05,2.72-5.5,6.05-7.33,9.68-.92,1.81-3.05,2.42-4.89,1.81-2.75-1.21-6.11-1.81-9.16-1.81-8.86,0-17.1,5.14-20.77,13-1.22,2.72-1.83,5.75-1.83,8.77v.3h0v.3c0,1.81-1.22,3.33-3.05,3.63-13.44,2.72-23.52,14.21-23.52,27.82v.91c.31,15.42,13.74,27.82,29.32,27.82h25.96c2.14,0,3.97,1.81,3.97,3.93s-1.83,3.93-3.97,3.93h-25.96c-9.77,0-18.93-3.63-25.65-10.28-7.02-6.65-10.99-15.42-11.3-25.1v-.91c0-16.03,10.99-29.94,26.57-34.47,.31-3.33,1.22-6.65,2.44-9.68,4.89-10.58,15.57-17.54,27.49-17.54,3.05,0,6.11,.3,8.86,1.21,1.83-3.02,4.28-6.05,7.02-8.77,8.25-7.56,18.93-11.79,30.23-11.79,23.82,0,43.36,19.05,43.36,42.33v2.72c19.24,1.81,33.9,16.93,33.9,35.68s-15.27,35.68-35.12,36.29h0Z"/>
      <path class="cls-3" d="M138.07,231.33h-.92c-1.83-.3-3.05-1.81-3.05-3.63v-28.42h-21.68c-1.22,0-2.44-.61-3.36-1.81-.92-1.21-.92-2.42-.31-3.63l25.35-53.83c.61-1.51,2.44-2.42,4.27-2.12,1.83,.3,3.05,1.81,3.05,3.63v32.05h21.68c1.22,0,2.44,.61,3.36,1.81,.61,1.21,.61,2.42,.31,3.63l-25.35,50.2c-.61,1.21-2.14,2.12-3.36,2.12Zm-19.55-39.92h19.55c2.14,0,3.97,1.81,3.97,3.93v16.03l15.27-30.54h-19.24c-2.14,0-3.97-1.81-3.97-3.93v-19.05l-15.58,33.57Z"/>
      <path class="cls-3" d="M91.04,221.05c-5.8,0-10.38-4.54-10.38-10.28,0-3.63,2.44-6.35,4.58-9.07,.92-1.21,1.83-2.12,2.44-3.02,.61-1.21,1.83-1.81,3.36-1.81h0c1.22,0,2.44,.6,3.36,1.81,.61,.91,1.53,1.81,2.44,3.02,2.44,2.72,4.58,5.75,4.58,9.07-.31,5.75-4.89,10.28-10.38,10.28Zm0-14.21c-.92,1.21-2.75,3.33-2.75,3.93,0,1.51,1.22,2.72,2.75,2.72s2.75-1.21,2.75-2.72c-.31-.6-1.83-2.72-2.75-3.93Z"/>
      <path class="cls-3" d="M113.94,236.17c-5.8,0-10.38-4.54-10.38-10.28,0-3.63,2.44-6.35,4.58-9.07,.92-1.21,1.83-2.12,2.44-3.02,.61-1.21,1.83-1.81,3.36-1.81h0c1.22,0,2.44,.6,3.36,1.81,.61,.91,1.53,1.81,2.44,3.02,2.44,2.72,4.58,5.75,4.58,9.07-.31,5.75-4.89,10.28-10.38,10.28Zm0-14.21c-.92,1.21-2.75,3.33-2.75,3.93,0,1.51,1.22,2.72,2.75,2.72s2.75-1.21,2.75-2.72c-.31-.6-1.83-2.72-2.75-3.93Z"/>
      <path class="cls-3" d="M186.32,221.05c-5.8,0-10.38-4.54-10.38-10.28,0-3.63,2.44-6.35,4.58-9.07,.92-1.21,1.83-2.12,2.44-3.02,.61-1.21,1.83-1.81,3.36-1.81h0c1.22,0,2.44,.6,3.36,1.81,.61,.91,1.53,2.12,2.44,3.02,2.44,2.72,4.58,5.75,4.58,9.07,0,5.75-4.58,10.28-10.38,10.28Zm0-14.21c-.92,1.21-2.75,3.33-2.75,3.93,0,1.51,1.22,2.72,2.75,2.72s2.75-1.21,2.75-2.72c0-.6-1.53-2.72-2.75-3.93Z"/>
      <path class="cls-3" d="M163.42,236.17c-5.8,0-10.38-4.54-10.38-10.28,0-3.63,2.44-6.35,4.58-9.07,.92-1.21,1.83-2.12,2.44-3.02,.61-1.21,1.83-1.81,3.36-1.81h0c1.22,0,2.44,.6,3.36,1.81,.61,.91,1.53,2.12,2.44,3.02,2.44,2.72,4.58,5.75,4.58,9.07,0,5.75-4.58,10.28-10.38,10.28Zm0-14.21c-.92,1.21-2.75,3.33-2.75,3.93,0,1.51,1.22,2.72,2.75,2.72s2.75-1.21,2.75-2.72c0-.6-1.53-2.72-2.75-3.93Z"/>
    </g>
  </g>
</svg>