<svg width="284" height="284" viewBox="0 0 284 284" fill="none" xmlns="http://www.w3.org/2000/svg">
<path d="M89.21 186.88C71.19 186.88 56.53 172.97 55.92 155.13V154.22C55.92 138.8 67.22 125.8 82.49 122.77V122.16C82.49 118.53 83.41 114.9 84.63 111.58C88.6 102.51 98.07 96.46 108.75 96.46C112.41 96.46 116.08 97.37 119.44 98.58C121.58 94.65 124.02 91.02 127.38 88C134.41 81.35 144.18 77.11 154.87 77.11C176.86 77.11 194.57 94.35 194.57 115.51C194.57 117.63 194.26 119.74 193.96 121.86H194.57C212.89 121.86 227.55 136.38 227.55 153.91C227.55 171.44 214.11 185.96 196.4 186.57L89.21 186.87V186.88Z" fill="#C2E3F7"/>
<path d="M163.42 177.2L158.83 185.97L138.07 227.4V195.04H112.41L116.08 187.48L138.07 141.22V177.2H163.42Z" fill="white"/>
<path d="M107.22 72.57C116.69 73.78 124.02 80.13 127.38 88.29C124.02 91.31 121.58 94.94 119.44 98.87C116.08 97.36 112.41 96.75 108.75 96.75C98.06 96.75 88.59 103.1 84.63 111.87C80.66 106.73 78.83 100.38 79.44 93.73C81.27 80.12 93.79 70.75 107.23 72.56L107.22 72.57Z" fill="white"/>
<path d="M220.83 93.74C221.44 94.34 222.05 95.25 222.05 96.46C222.05 97.37 221.74 98.58 220.83 99.18C220.22 99.79 219.3 100.39 218.08 100.39C215.94 100.39 214.11 98.58 214.11 96.46C214.11 95.55 214.42 94.34 215.33 93.74C215.94 93.13 216.86 92.53 218.08 92.53C219 92.53 220.22 92.83 220.83 93.74Z" fill="#0B93E2"/>
<path d="M196.72 200.21C197.33 200.81 197.94 201.72 197.94 202.93C197.94 203.84 197.63 205.05 196.72 205.65C196.11 206.26 195.19 206.86 193.97 206.86C191.83 206.86 190 205.05 190 202.93C190 202.02 190.3 200.81 191.22 200.21C191.83 199.6 192.75 199 193.97 199C195.19 199 196.11 199.3 196.72 200.21Z" fill="#0B93E2"/>
<path d="M109.72 204.21C110.33 204.81 110.94 205.72 110.94 206.93C110.94 207.84 110.63 209.05 109.72 209.65C109.11 210.26 108.19 210.86 106.97 210.86C104.83 210.86 103 209.05 103 206.93C103 206.02 103.31 204.81 104.22 204.21C104.83 203.6 105.75 203 106.97 203C107.89 203 109.11 203.3 109.72 204.21Z" fill="#0B93E2"/>
<path d="M179.6 118.84C177.46 118.84 175.94 117.33 175.94 115.21C175.33 99.49 162.2 96.16 161.59 96.16C159.45 95.56 158.23 93.74 158.84 91.62C159.45 89.5 161.28 88.29 163.42 88.9C164.03 88.9 168.61 90.11 173.19 93.74C177.77 97.37 182.96 103.72 183.57 114.91C183.26 117.03 181.74 118.84 179.6 118.84Z" fill="#0B93E2"/>
<path d="M103.25 134.56C102.33 134.56 101.11 134.26 100.5 133.35C93.48 125.49 83.4 126.7 82.79 126.7H82.18C80.04 126.7 78.21 124.89 78.21 122.77C78.21 120.65 79.74 119.14 81.57 119.14C83.1 118.84 96.23 117.93 105.7 128.51C107.23 130.02 106.92 132.44 105.39 133.95C105.09 134.25 104.17 134.56 103.25 134.56Z" fill="#0B93E2"/>
<path d="M84.63 115.51C83.71 115.51 82.8 115.21 81.88 114.6L81.57 114.3C76.68 108.25 74.85 100.69 75.77 93.13C76.69 85.57 80.66 78.92 86.76 74.38C92.87 69.84 100.2 67.73 107.83 68.63C118.52 69.84 127.37 77.1 131.04 86.77C131.65 88.58 130.74 91 128.9 91.61C127.07 92.22 124.62 91.31 124.01 89.49C121.26 82.23 114.85 77.09 106.91 76.18C101.41 75.58 95.92 77.09 91.34 80.41C86.76 83.74 84.01 88.57 83.4 94.32C82.79 99.76 84.32 105.21 87.68 109.74C88.9 111.25 88.9 113.37 87.37 114.58C86.45 115.19 85.54 115.49 84.62 115.49L84.63 115.51Z" fill="#0B93E2"/>
<path d="M108.45 66.83H107.84C105.7 66.53 104.18 64.71 104.48 62.6L106.01 50.81C106.32 48.69 108.15 47.18 110.29 47.48C112.43 47.78 113.95 49.6 113.65 51.71L112.12 63.5C112.12 65.31 110.29 66.83 108.46 66.83H108.45Z" fill="#0B93E2"/>
<path d="M124.94 73.48C124.02 73.48 123.41 73.18 122.5 72.57C120.97 71.36 120.36 68.94 121.89 67.13L129.22 57.76C130.44 56.25 132.88 55.64 134.72 57.15C136.25 58.36 136.86 60.78 135.33 62.59L128 71.96C127.39 72.87 126.17 73.47 124.95 73.47L124.94 73.48Z" fill="#0B93E2"/>
<path d="M61.41 118.24C59.88 118.24 58.36 117.33 57.75 115.82C56.83 114.01 57.75 111.59 59.89 110.98L70.88 106.44C72.71 105.53 75.16 106.44 75.77 108.56C76.69 110.37 75.77 112.79 73.63 113.4L62.63 117.94C62.33 118.24 61.71 118.24 61.41 118.24Z" fill="#0B93E2"/>
<path d="M69.97 96.16H69.36L57.45 94.65C55.31 94.35 53.79 92.53 54.09 90.42C54.4 88.3 56.23 86.79 58.37 87.09L70.28 88.6C72.42 88.9 73.94 90.72 73.64 92.83C73.33 94.95 71.81 96.16 69.97 96.16Z" fill="#0B93E2"/>
<path d="M76.68 79.83C75.76 79.83 75.15 79.53 74.24 78.92L64.77 71.66C63.24 70.45 62.63 68.03 64.16 66.22C65.38 64.71 67.82 64.1 69.66 65.61L79.13 72.87C80.66 74.08 81.27 76.5 79.74 78.31C78.82 79.22 77.91 79.82 76.69 79.82L76.68 79.83Z" fill="#0B93E2"/>
<path d="M90.73 68.95C89.2 68.95 87.68 68.04 87.07 66.53L82.49 55.64C81.57 53.83 82.49 51.41 84.63 50.8C86.46 49.89 88.9 50.8 89.52 52.92L94.1 63.81C95.02 65.62 94.1 68.04 91.96 68.65C91.96 68.95 91.35 68.95 90.74 68.95H90.73Z" fill="#0B93E2"/>
<path d="M196.4 190.81H160.97C158.83 190.81 157 189 157 186.88C157 184.76 158.83 182.95 160.97 182.95H196.4C211.67 182.34 223.89 169.95 223.89 154.22C223.89 138.49 210.76 125.8 194.57 125.8H193.96C192.74 125.8 191.82 125.19 190.91 124.59C189.99 123.99 189.99 122.47 189.99 121.57C190.3 119.76 190.6 117.64 190.6 115.82C190.6 96.77 174.41 81.05 154.87 81.05C145.4 81.05 136.55 84.68 129.83 91.03C126.78 93.75 124.33 97.08 122.5 100.71C121.58 102.52 119.45 103.13 117.61 102.52C114.86 101.31 111.5 100.71 108.45 100.71C99.59 100.71 91.35 105.85 87.68 113.71C86.46 116.43 85.85 119.46 85.85 122.48V122.78V123.08C85.85 124.89 84.63 126.41 82.8 126.71C69.36 129.43 59.28 140.92 59.28 154.53V155.44C59.59 170.86 73.02 183.26 88.6 183.26H114.56C116.7 183.26 118.53 185.07 118.53 187.19C118.53 189.31 116.7 191.12 114.56 191.12H88.6C78.83 191.12 69.67 187.49 62.95 180.84C55.93 174.19 51.96 165.42 51.65 155.74V154.83C51.65 138.8 62.64 124.89 78.22 120.36C78.53 117.03 79.44 113.71 80.66 110.68C85.55 100.1 96.23 93.14 108.15 93.14C111.2 93.14 114.26 93.44 117.01 94.35C118.84 91.33 121.29 88.3 124.03 85.58C132.28 78.02 142.96 73.79 154.26 73.79C178.08 73.79 197.62 92.84 197.62 116.12V118.84C216.86 120.65 231.52 135.77 231.52 154.52C231.52 173.27 216.25 190.2 196.4 190.81Z" fill="#0B93E2"/>
<path d="M138.07 231.33H137.15C135.32 231.03 134.1 229.52 134.1 227.7V199.28H112.42C111.2 199.28 109.98 198.67 109.06 197.47C108.14 196.26 108.14 195.05 108.75 193.84L134.1 140.01C134.71 138.5 136.54 137.59 138.37 137.89C140.2 138.19 141.42 139.7 141.42 141.52V173.57H163.1C164.32 173.57 165.54 174.18 166.46 175.38C167.07 176.59 167.07 177.8 166.77 179.01L141.42 229.21C140.81 230.42 139.28 231.33 138.06 231.33H138.07ZM118.52 191.41H138.07C140.21 191.41 142.04 193.22 142.04 195.34V211.37L157.31 180.83H138.07C135.93 180.83 134.1 179.02 134.1 176.9V157.85L118.52 191.42V191.41Z" fill="#0B93E2"/>
<path d="M79.9586 215.323C79.9586 215.924 79.6517 216.535 79.3449 217.136C78.7312 218.338 77.2073 218.949 75.9799 218.949C75.3663 218.949 74.7526 218.644 74.1492 218.348C72.3081 217.146 71.7047 215.027 72.9218 213.214C73.5355 212.012 74.7628 211.401 76.2868 211.401C76.9005 211.401 77.5141 211.706 78.1176 212.002C79.0381 212.908 79.9586 214.11 79.9586 215.323Z" fill="#0B93E2"/>
<path d="M83.3236 209.292C82.4031 209.292 81.7894 208.987 80.8791 208.386C79.3449 207.183 78.7313 204.759 80.2654 202.956L84.5509 197.526C85.7783 196.019 88.2227 195.418 90.0637 196.925C91.5979 198.127 92.2013 200.542 90.6774 202.355L86.3919 207.784C85.7782 208.997 84.5509 209.292 83.3338 209.292H83.3236Z" fill="#0B93E2"/>
<path d="M115.671 229.271C115.671 229.872 115.364 230.484 115.057 231.085C114.443 232.287 112.919 232.898 111.692 232.898C111.078 232.898 110.465 232.592 109.861 232.297C108.02 231.095 107.417 228.976 108.634 227.163C109.248 225.961 110.475 225.349 111.999 225.349C112.613 225.349 113.226 225.655 113.83 225.951C114.75 226.857 115.671 228.059 115.671 229.271Z" fill="#0B93E2"/>
<path d="M119.036 223.241C118.115 223.241 117.502 222.935 116.591 222.334C115.057 221.132 114.443 218.708 115.978 216.905L120.263 211.475C121.49 209.967 123.935 209.366 125.776 210.874C127.31 212.076 127.914 214.49 126.39 216.304L122.104 221.733C121.49 222.945 120.263 223.241 119.046 223.241H119.036Z" fill="#0B93E2"/>
<path d="M165.671 218.271C165.671 218.872 165.364 219.484 165.057 220.085C164.443 221.287 162.919 221.898 161.692 221.898C161.078 221.898 160.465 221.592 159.861 221.297C158.02 220.095 157.417 217.976 158.634 216.163C159.248 214.961 160.475 214.349 161.999 214.349C162.613 214.349 163.226 214.655 163.83 214.951C164.75 215.857 165.671 217.059 165.671 218.271Z" fill="#0B93E2"/>
<path d="M169.036 212.241C168.115 212.241 167.502 211.935 166.591 211.334C165.057 210.132 164.443 207.708 165.978 205.905L170.263 200.475C171.49 198.967 173.935 198.366 175.776 199.874C177.31 201.076 177.914 203.49 176.39 205.304L172.104 210.733C171.49 211.945 170.263 212.241 169.046 212.241H169.036Z" fill="#0B93E2"/>
<path d="M88.6708 235.271C88.6708 235.872 88.3639 236.484 88.0571 237.085C87.4434 238.287 85.9195 238.898 84.6921 238.898C84.0785 238.898 83.4648 238.592 82.8613 238.297C81.0203 237.095 80.4169 234.976 81.634 233.163C82.2477 231.961 83.475 231.349 84.999 231.349C85.6126 231.349 86.2263 231.655 86.8298 231.951C87.7503 232.857 88.6708 234.059 88.6708 235.271Z" fill="#0B93E2"/>
<path d="M92.0357 229.241C91.1152 229.241 90.5015 228.935 89.5913 228.334C88.0571 227.132 87.4434 224.708 88.9776 222.905L93.2631 217.475C94.4904 215.967 96.9349 215.366 98.7759 216.874C100.31 218.076 100.914 220.49 99.3896 222.304L95.1041 227.733C94.4904 228.945 93.2631 229.241 92.046 229.241H92.0357Z" fill="#0B93E2"/>
<path d="M175.671 235.271C175.671 235.872 175.364 236.484 175.057 237.085C174.443 238.287 172.919 238.898 171.692 238.898C171.078 238.898 170.465 238.592 169.861 238.297C168.02 237.095 167.417 234.976 168.634 233.163C169.248 231.961 170.475 231.349 171.999 231.349C172.613 231.349 173.226 231.655 173.83 231.951C174.75 232.857 175.671 234.059 175.671 235.271Z" fill="#0B93E2"/>
<path d="M179.036 229.241C178.115 229.241 177.502 228.935 176.591 228.334C175.057 227.132 174.443 224.708 175.978 222.905L180.263 217.475C181.49 215.967 183.935 215.366 185.776 216.874C187.31 218.076 187.914 220.49 186.39 222.304L182.104 227.733C181.49 228.945 180.263 229.241 179.046 229.241H179.036Z" fill="#0B93E2"/>
</svg>
