<?xml version="1.0" encoding="UTF-8"?>
<svg id="_회오리" data-name="회오리" xmlns="http://www.w3.org/2000/svg" viewBox="0 0 283.46 283.46">
  <defs>
    <style>
      .cls-1 {
        fill: #fff;
      }

      .cls-2 {
        fill: #c2e3f7;
      }

      .cls-3 {
        fill: #0b93e2;
      }
    </style>
  </defs>
  <g id="_727_Storm_Weather_Wind" data-name="727, Storm, Weather, Wind">
    <g>
      <path class="cls-1" d="M97.03,222.67c0-3.61,4.02-7.23,10.95-10.12,7.3,2.53,15.69,4.7,25.18,6.5,15.69,2.53,30.65,2.53,40.87,0h0c.36,7.23-16.42,14.09-37.59,15.18-21.53,1.08-39.05-4.34-39.41-11.56Z"/>
      <path class="cls-2" d="M150.67,170.28c22.26,2.17,42.33,.36,55.84-3.98-5.84,8.31-22.63,16.62-43.79,21.68-4.74,1.09-9.49,2.17-14.6,2.89-25.91,3.98-49.27,2.17-60.58-3.98-4.02-2.17-6.57-5.06-7.3-8.31-1.09-6.87,6.93-14.45,20.44-20.6,11.68,5.78,29.56,10.48,50,12.29Z"/>
      <path class="cls-2" d="M79.87,99.09c15.33,5.42,36.49,8.67,59.85,8.67,27.73,0,52.55-4.7,67.88-11.93,1.46,1.81,2.19,3.61,2.55,5.42,1.1,8.31-8.76,17.71-25.55,24.93-12.77,5.42-29.2,10.12-47.44,12.65-20.8,2.89-39.78,2.89-54.38,0-15.33-2.89-25.55-8.31-26.64-15.9-1.46-7.59,8.03-16.62,23.72-23.85Z"/>
      <path class="cls-2" d="M87.17,186.9c11.31,6.14,34.67,7.95,60.58,3.98,5.11-.72,9.85-1.81,14.6-2.89,16.79,5.78,27.37,13.73,26.28,20.96-.73,4.7-6.2,7.95-14.96,10.12-10.22,2.17-24.82,2.53-40.87,0-9.12-1.45-17.88-3.61-25.18-6.5-15.33-5.78-25.18-13.37-24.09-20.24,.36-2.17,1.46-3.98,3.65-5.42Z"/>
      <path class="cls-2" d="M184.61,126.19c23.72,6.14,39.41,16.26,38.68,26.02-.36,5.78-6.93,10.48-16.79,13.73-13.5,4.34-33.57,6.14-55.84,3.97-20.07-1.81-37.95-6.5-50.36-12.65-11.31-5.42-17.88-11.92-17.52-18.43,14.6,2.53,33.57,2.89,54.38,0,18.25-2.17,34.67-6.87,47.44-12.65Z"/>
      <path class="cls-1" d="M139.73,107.77c-23.36,0-44.52-3.25-59.85-8.67-15.33-5.42-24.45-12.65-24.45-20.6,0-16.26,37.95-29.27,84.3-29.27s84.3,13.01,84.3,29.27c0,6.5-6.2,12.65-16.42,17.34-15.33,7.23-40.14,11.93-67.88,11.93Z"/>
      <path class="cls-3" d="M240.81,122.58c.73,.72,1.46,1.81,1.46,3.25,0,1.08-.36,2.53-1.46,3.25-.73,.72-1.82,1.44-3.28,1.44-2.55,0-4.74-2.17-4.74-4.7,0-1.09,.37-2.53,1.46-3.25,.73-.72,1.82-1.45,3.29-1.45,1.46,.36,2.55,.72,3.28,1.45Z"/>
      <path class="cls-3" d="M231.69,212.92c.73,.72,1.46,1.81,1.46,3.25,0,1.08-.37,2.53-1.46,3.25-.73,.72-1.82,1.45-3.28,1.45-2.55,0-4.74-2.17-4.74-4.7,0-1.09,.37-2.53,1.46-3.25,.73-.72,1.82-1.45,3.29-1.45,1.46,.36,2.55,.72,3.28,1.45Z"/>
      <path class="cls-3" d="M63.09,212.92c.73,.72,1.46,1.81,1.46,3.25,0,1.08-.37,2.53-1.46,3.25-.73,.72-1.82,1.45-3.29,1.45-2.55,0-4.74-2.17-4.74-4.7,0-1.09,.37-2.53,1.46-3.25,.73-.72,1.82-1.45,3.28-1.45,1.1,.36,2.55,.72,3.29,1.45Z"/>
      <path class="cls-3" d="M49.22,181.48c.73,.72,1.46,1.81,1.46,3.25s-.36,2.53-1.46,3.25c-.73,.72-1.82,1.45-3.28,1.45-2.55,0-4.74-2.17-4.74-4.7,0-1.08,.37-2.53,1.46-3.25,.73-.72,1.82-1.45,3.29-1.45s2.55,.72,3.28,1.45Z"/>
      <path class="cls-3" d="M79.87,103.79c-.37,0-1.09,0-1.46-.36-18.25-6.14-27.74-14.82-27.74-24.93s9.49-18.79,27.74-24.93c16.42-5.78,38.32-9.03,61.31-9.03s44.89,3.25,61.31,9.03c18.25,6.14,27.74,14.82,27.74,24.93,0,5.78-3.29,14.09-18.98,21.32-2.19,1.09-5.11,0-6.2-2.17-1.1-2.17,0-5.06,2.19-6.14,8.76-3.98,13.87-9.03,13.87-13.37,0-5.78-8.03-11.92-21.53-16.62-15.33-5.42-36.13-8.31-58.02-8.31s-42.7,2.89-58.03,8.31c-13.5,4.7-21.53,10.84-21.53,16.62,0,5.42,8.03,11.56,21.53,16.62,2.55,.72,3.65,3.25,2.92,5.78-1.46,2.17-3.29,3.25-5.11,3.25Z"/>
      <path class="cls-3" d="M82.8,143.9h-.73c-18.25-3.25-28.83-10.48-30.29-19.87-1.46-10.12,8.03-20.24,26.28-28.91,1.1-.36,2.19-.72,3.28,0,15.33,5.42,36.13,8.31,58.39,8.31,25.91,0,50.73-4.34,66.05-11.56,1.82-.72,4.01-.36,5.47,1.08,2.19,2.53,3.28,5.06,3.65,7.95,1.46,10.48-8.39,20.96-28.47,29.63-2.19,1.09-5.11,0-6.21-2.17-1.09-2.17,0-5.06,2.19-6.14,14.96-6.51,23.72-14.45,22.99-20.24v-.36c-16.79,6.87-40.51,10.84-66.05,10.84-22.26,0-43.43-2.89-59.49-8.31-12.77,6.14-20.44,13.37-19.71,18.43,.73,5.06,9.49,9.76,22.99,12.29,2.55,.36,4.01,2.89,3.65,5.42,0,2.17-1.82,3.61-4.01,3.61Z"/>
      <path class="cls-3" d="M206.14,170.64c-1.82,0-3.65-1.08-4.38-3.25-.73-2.53,.37-5.06,2.92-5.78,8.4-2.89,13.5-6.5,13.87-10.12,.37-5.78-10.95-14.45-33.57-20.6-13.5,5.78-29.56,10.12-47.44,12.65-17.15,2.53-33.94,2.89-48.17,1.08,2.55,2.89,6.93,6.14,12.77,8.67,2.19,1.08,3.29,3.61,2.19,6.14-1.1,2.17-3.65,3.25-6.2,2.17-17.52-8.31-20.44-16.98-20.07-22.76,0-1.45,.73-2.53,1.82-3.25,1.1-.72,2.19-1.08,3.65-.72,14.6,2.53,33.57,2.53,52.92,0,17.15-2.53,33.57-6.87,46.35-12.65,1.1-.36,2.19-.36,2.92-.36,27.37,7.23,43.06,18.43,41.97,30.71-.36,5.42-4.38,12.65-20.07,17.71-.37,.36-.73,.36-1.46,.36Z"/>
      <path class="cls-3" d="M162.35,192.68c-2.19,0-4.02-1.45-4.38-3.61-.73-2.53,.73-4.7,3.28-5.42,9.85-2.53,18.98-5.42,26.28-9.03-11.31,1.08-24.09,1.45-37.22,0-18.98-1.81-36.86-6.14-50-11.93-11.68,5.78-16.42,11.56-16.06,15.18,.37,2.17,2.92,3.98,4.74,5.06,2.19,1.09,2.92,3.98,1.82,6.14-1.09,2.17-4.01,2.89-6.2,1.81-6.93-3.61-9.12-8.31-9.49-11.56-1.46-9.03,6.57-18.07,22.99-25.66,1.09-.72,2.55-.72,4.01,0,12.41,5.78,30.29,10.12,48.9,11.93,20.8,1.81,40.51,.36,54.01-3.98,1.83-.72,4.01,0,5.11,1.45,1.1,1.45,1.1,3.61,0,5.42-6.57,9.4-24.09,18.07-46.71,23.85-.36,.36-.73,.36-1.09,.36Z"/>
      <path class="cls-3" d="M130.97,238.94c-8.76,0-16.79-1.08-23.36-2.89-12.04-3.61-14.6-9.03-14.96-13.01-.37-3.98,2.19-9.76,13.87-14.45,2.19-1.08,5.11,.36,5.84,2.53,1.1,2.17-.36,5.06-2.55,5.78-6.93,2.53-8.03,5.06-8.03,5.78,0,.36,1.46,2.89,8.39,4.7,6.93,2.17,16.06,2.89,25.91,2.53,9.85-.36,18.98-2.17,25.55-4.7,6.57-2.53,8.03-5.06,8.03-5.42v.36l8.76-1.81v.72c0,3.98-2.19,9.76-13.5,14.45-7.66,2.89-17.88,5.06-28.47,5.42h-5.47Z"/>
      <path class="cls-3" d="M155.42,225.2h0c-7.3,0-14.96-.72-22.99-1.81-9.12-1.45-18.25-3.61-25.91-6.51-18.98-6.87-29.2-16.26-27.73-25.29,.36-2.17,1.46-5.42,5.47-8.31,1.46-1.08,3.29-1.08,5.11-.36,6.57,3.61,18.25,5.78,32.11,5.78,8.39,0,16.79-.72,25.91-2.17,4.74-.72,9.49-1.81,14.23-2.89,.73-.36,1.82,0,2.55,0,20.07,6.87,31.02,16.26,29.2,26.02-.73,4.34-4.38,10.48-18.25,13.73-5.84,1.08-12.41,1.81-19.71,1.81Zm-67.51-32.88v.36c-.36,2.89,5.11,9.4,21.53,15.54,7.3,2.53,15.69,4.7,24.09,6.14,7.3,1.08,14.6,1.81,21.53,1.81,6.57,0,12.77-.72,17.52-1.81,8.03-1.81,10.95-4.34,11.31-6.14,.37-2.89-6.2-9.76-22.26-15.54-4.38,1.08-9.12,1.81-13.87,2.53-9.49,1.45-18.61,2.17-27.37,2.17-12.77,0-24.45-1.81-32.48-5.06Z"/>
    </g>
  </g>
</svg>